<svg id="Layer_1" data-name="Layer 1" xmlns="http://www.w3.org/2000/svg" viewBox="0 0 98.95934 46.24121">
  <defs>
    <style>
      .cls-1, .cls-2 {
        fill: #c8693a;
      }

      .cls-2 {
        isolation: isolate;
        font-size: 8.75641px;
        font-family: RussoOne-Regular, Russo One;
      }
    </style>
  </defs>
  <title>hungrybuzz_logo_spin 2</title>
  <g>
    <g>
      <path class="cls-1" d="M4.17379,46.26579c-1.77073,2.11762-2.9264,4.51184-2.47415,5.49161.32758.68254,1.76428.47552,2.36479.31246.34725-.09517.36652.0564.14874.16081a5.05474,5.05474,0,0,1-2.22809.56875,1.94441,1.94441,0,0,1-1.699-.93549c-.996-2.07637.71845-5.16737,3.44508-7.60074a19.36016,19.36016,0,0,1,5.15445-3.33c5.23079-2.27713,8.1473.41415,8.6022,1.66061.59339,1.6087-.74012,4.3026-3.10143,6.86441a31.38114,31.38114,0,0,1-5.1488,4.30973,30.72231,30.72231,0,0,0,7.54017,1.42,12.29428,12.29428,0,0,0,4.17047-.42883,2.08406,2.08406,0,0,0,1.364-1.92253c.00938-.12954.067-.12144.10816.00171a4.4046,4.4046,0,0,1,.13892,1.6302,3.45892,3.45892,0,0,1-.37711,1.48494,1.78805,1.78805,0,0,1-.6054.45109c-2.77341,1.33045-9.91115-.47905-12.83847-1.62905a28.73352,28.73352,0,0,0-.62786,5.35633c-.00985.61205-.00369,1.55578.17044,1.47216a26.59788,26.59788,0,0,0,2.1865-4.6392c.05343-.1863.16892-.20616.1522-.05516-.12709,1.59717-.8845,4.74694-1.55248,5.06738a2.85435,2.85435,0,0,1-1.19851.18212A1.60107,1.60107,0,0,1,6.426,61.38626c-.41154-.82069-.01818-3.72438.45988-6.52589l-.20863-.025c-.85465-.14358-.96178-1.96782-.24455-2.22265.10862-.03424.42214.17267.82238.37366.15-.80434.50569-2.29683.70864-3.2515.768-3.35136,1.547-5.18992,1.12906-6.06114A.40726.40726,0,0,0,8.809,43.417c-.00713-.01453.00048-.03595.0441-.05689a3.17171,3.17171,0,0,1,2.39952.83165,11.427,11.427,0,0,1-.65594,3.101c-.44411,1.60629-.919,3.33462-1.30024,5.07159a43.83262,43.83262,0,0,0,3.73865-3.97283c2.06973-2.35037,3.28821-5.0605,2.52885-6.64322-.4665-.973-1.94854-1.53017-4.95124-.26825A17.37171,17.37171,0,0,0,4.17379,46.26579Z" transform="translate(0 -26.75879)"/>
      <path class="cls-1" d="M22.97212,43.48165a2.3951,2.3951,0,0,1,2.56232,1.28019c.20245.77909-2.99334,4.35533-5.84088,5.11245a4.525,4.525,0,0,0-.351,2.10432c.0451.23782.24088.28668.49015.22189a2.667,2.667,0,0,0,.99482-.52487,30.09273,30.09273,0,0,0,5.565-5.78943c.05-.063.30074.00491.25444.08352-1.5431,2.83029-4.71207,6.76542-6.27044,7.17072-.7478.19458-2.63453-.66242-2.84857-1.42194a3.77573,3.77573,0,0,1,.24139-2.14235,13.44688,13.44688,0,0,1,2.59287-4.168A6.28568,6.28568,0,0,1,22.97212,43.48165Zm-3.05667,5.9024a11.41362,11.41362,0,0,0,3.25986-3.0105A3.8851,3.8851,0,0,0,24.216,44.10641c-1.24656.32425-3.20074,3.0452-4.30053,5.27762Z" transform="translate(0 -26.75879)"/>
      <path class="cls-1" d="M29.10931,46.43229a26.76394,26.76394,0,0,1,5.22934-2.15481c.12463-.03647.12119.14346.04676.18818a39.8144,39.8144,0,0,0-4.31086,2.185c.783.19913,1.52242.63365,1.59727,1.09459.06184.3814.034.71231-.58567,1.41649a9.34942,9.34942,0,0,1-4.50275,2.50987c-1.033.16784-2.20442-.8165-2.15169-1.39607.07759-.82821,2.0751-2.49053,4.15493-3.54632-.95761-.1707-2.02093-.38942-2.13992-1.12055-.21428-1.31921,2.7335-3.56,4.54536-3.85446a1.91817,1.91817,0,0,1,2.047,1.152c.12144.747-1.333,1.636-1.79384,1.71085-.09557.0155-.19855-.01674-.15863-.07221.23968-.33249,1.23722-1.52242,1.18818-1.82437-.01033-.06367-.04481-.0744-.1719-.05368a6.79393,6.79393,0,0,0-2.65074,1.45848c-1.049.8719-1.55566,1.77-1.33153,1.94555A3.2138,3.2138,0,0,0,29.10931,46.43229Zm.88647.737c-.02317-.14312-.06279-.1856-.36427-.2345-.51771.32881-1.03255.67351-1.585,1.08955a9.2414,9.2414,0,0,0-2.786,2.83449c.34632.12315,2.8685-1.62436,3.60152-2.2329.2603-.20542,1.21133-.97992,1.13372-1.45666Z" transform="translate(0 -26.75879)"/>
      <path class="cls-1" d="M33.99136,48.92525c.00443.04817.02336.0787.08743.07263.33669-.03124,2.84236-2.47944,4.78251-4.7458.10173-.12267.24065-.02229.1707.0974-.30937.49767-.997,1.451-1.95247,2.65554s-2.69806,3.16146-3.17907,3.20619a2.10547,2.10547,0,0,1-.95248-.33205c-.46427-.29641-.83521-.63384-.84751-.94a.75889.75889,0,0,1,.04038-.26241,33.01977,33.01977,0,0,1,2.64162-5.16149l2.26061-3.86479a4.707,4.707,0,0,0-1.72859.88828c-.17316.2264.32021.48769.60615.60667.067.0261.0234.0787-.02461.08326a1.83084,1.83084,0,0,1-1.40492-.50026c-.32488-.71369.45322-1.56216.701-1.68226a9.931,9.931,0,0,1,2.61381-.76024c.28895-.54432.51971-1.0186.681-1.37313.29163-.69014.38674-1.23264.08476-1.3501a1.14958,1.14958,0,0,1,.80643.15147,2.19738,2.19738,0,0,1,1.12805,1.35061.22957.22957,0,0,1-.02313.09928l-.47514.8042a24.104,24.104,0,0,1,6.31579.2703c.04975.01157.00444.04813-.01156.04963-1.03353.01515-2.84535.18338-4.635.41442-.35127.04875-1.29412.16869-2.31137.3602l-2.483,4.25729C36.79852,43.45726,33.92878,48.25189,33.99136,48.92525Z" transform="translate(0 -26.75879)"/>
      <path class="cls-1" d="M46.12612,43.42a2.11342,2.11342,0,0,1,.6404,1.0229c.00051.03214-.0155.04852-.031.08093l-.39733.45564a11.59866,11.59866,0,0,0-2.21406,3.31246c.00053.04826.001.08041.08132.0794.35445-.0043,3.0323-2.27547,5.13253-4.36242.11132-.11408.29016.01257.21109.12621-.74384,1.072-4.47958,5.09536-5.49042,5.39755a.21642.21642,0,0,1-.08031.01714,1.86187,1.86187,0,0,1-1.06823-.438c-.40663-.33323-.79925-.82771-.77121-1.16623a.57566.57566,0,0,1,.03034-.16132,17.6929,17.6929,0,0,1,1.86746-2.6962c-.52465.57007-1.43106,1.51515-2.05247,2.0542-1.62561,1.40482-2.94954,2.45172-3.54535,2.459-.467.00569-1.84731-.92769-1.85762-1.78116-.01254-1.03056,1.5091-3.02994,3.32611-4.582,1.54607-1.3233,3.3047-2.37553,4.46406-2.38954,1.51358-.01849,2.73057.72362,2.74339,1.77021C47.11778,42.86038,46.54238,43.22156,46.12612,43.42Zm-1.052-.42208a1.15925,1.15925,0,0,1,.74287.16813,1.75274,1.75274,0,0,0,.24679-.88884c.02759-.38684-.153-.65836-.49117-.65433-1.04654.0128-2.99307,1.51812-4.04359,2.52943-1.79879,1.72908-3.30546,3.64782-3.29876,4.19522.0007.04826.01748.11256.13028.11121.61185-.00754,6.66576-4.09142,6.77934-5.3489a.14048.14048,0,0,0-.06576-.1119Z" transform="translate(0 -26.75879)"/>
      <path class="cls-1" d="M57.49735,44.17158a28.1415,28.1415,0,0,0-3.71187,4.48177c-.00468.048.00837.08166.07244.08781.33669.03214,3.19138-1.9111,5.52072-3.77512.12288-.1015.30466.029.21381.13363-.39707.43112-1.25075,1.23926-2.41429,2.2442-1.16359,1.00478-3.24115,2.60184-3.72195,2.55591a2.3652,2.3652,0,0,1-1.53988-1.82944c.049-.513,1.42042-1.99942,2.32758-3.02884-2.05075,1.82586-4.60172,3.97609-5.57736,4.36811a.2142.2142,0,0,1-.08178.00837,2.608,2.608,0,0,1-1.72658-2.07364c.05663-.59311,2.19852-2.86335,4.11036-4.929a3.70333,3.70333,0,0,0,.69111-.96922A.27858.27858,0,0,0,51.437,41.069a.83967.83967,0,0,1,.76377.29937c.81134.82168.88746,1.37882.85,1.60176a.22978.22978,0,0,1-.04136.09308s-1.26061,1.17366-1.94162,1.86869a12.46891,12.46891,0,0,0-2.46356,3.09681c-.00592.06416.01674.1633.11307.17255.54483.05208,6.13376-3.92686,7.3904-5.23018a2.04915,2.04915,0,0,0,.67761-1.16467.25814.25814,0,0,0-.11973-.27017,1.20775,1.20775,0,0,1,.76085.33152,2.17907,2.17907,0,0,1,.8606,1.48953.2289.2289,0,0,1-.04139.09311S57.91039,43.742,57.49735,44.17158Z" transform="translate(0 -26.75879)"/>
      <path class="cls-1" d="M58.06877,49.03353c-.40738.49531-.57241.84062-.54015.92879.09237.11628-.06209.152-.23.08684-.16773-.06514-1.202-1.24875-.95224-1.69248a5.40461,5.40461,0,0,1,.8143-.99077l1.05713-1.05862c.83131-.82354,2.24313-2.19076,2.75445-2.71528.51428-.54028.85147-1.09841.59436-1.29559a1.02011,1.02011,0,0,1,.73818.33927,1.80361,1.80361,0,0,1,.72021,1.4509,12.86577,12.86577,0,0,1-1.90126,1.86328c.48084-.36635.99018-.71082,1.53105-1.04927,1.05665-.63225,3.23053-1.869,4.00394-1.88363.34437.00088.72021.94263.52611,1.69225a2.03041,2.03041,0,0,1-.51455.96663.77309.77309,0,0,0-.05071-.50171,1.00087,1.00087,0,0,0-.83032-.45554,5.729,5.729,0,0,0-3.38255.87217A15.46043,15.46043,0,0,0,58.06877,49.03353Z" transform="translate(0 -26.75879)"/>
      <path class="cls-1" d="M73.48953,47.78316a2.11275,2.11275,0,0,1,.29948,1.169c-.00958.03078-.02952.04147-.0544.06757l-.51672.31346a11.59737,11.59737,0,0,0-3.116,2.48226c-.014.0462-.0234.077.05372.10049.33863.10362,3.57981-1.24606,6.21476-2.59568.14065-.07472.27243.10015.16256.18438-1.0345.79507-5.81556,3.49237-6.87049,3.47291a.21288.21288,0,0,1-.08153-.0081,1.86137,1.86137,0,0,1-.88449-.74175,1.82324,1.82324,0,0,1-.38007-1.34532.56956.56956,0,0,1,.07784-.14455,17.693,17.693,0,0,1,2.59828-2.00066c-.67293.3836-1.82366,1.0084-2.5796,1.333-1.97537.84409-3.55444,1.43893-4.12411,1.26476-.44657-.13643-1.47783-1.44507-1.22834-2.261.30124-.98546,2.35837-2.4276,4.56083-3.35385,1.8749-.79075,3.87-1.25849,4.97859-.91959,1.44728.4425,2.381,1.51923,2.07512,2.52008C74.6043,47.5514,73.94644,47.72071,73.48953,47.78316Zm-.87365-.72168a1.15755,1.15755,0,0,1,.65642.38583,1.75352,1.75352,0,0,0,.50542-.77156c.14361-.3602.05421-.67376-.269-.77253-1.001-.30593-3.31255.53641-4.6207,1.1804-2.23891,1.10038-4.25689,2.47022-4.417,2.99373-.014.04616-.0175.11246.09012.14544.58524.17881,7.59288-1.87145,8.08331-3.03475A.13983.13983,0,0,0,72.61588,47.06148Z" transform="translate(0 -26.75879)"/>
      <path class="cls-1" d="M81.35777,53.31779a10.628,10.628,0,0,0-2.64038,1.74448.06886.06886,0,0,0,.03838.1071c.32022.15137,3.61406-.71451,6.47366-1.67882.15-.05382.25516.1384.13425.20591-.51279.25629-1.71085.79446-3.01082,1.28451-1.40026.5139-3.9022,1.36206-4.368,1.142a2.14717,2.14717,0,0,1-.87171-2.2638.56806.56806,0,0,1,.09778-.13177,20.71234,20.71234,0,0,1,3.28177-2.04693c1.13133-.62305,2.87071-1.43979,2.89114-1.4835a.03156.03156,0,0,0-.01408-.04233l-.00118-.00055a15.486,15.486,0,0,0-4.3.96049c-2.02365.66454-5.60347,1.94743-5.68572,2.46063.001.036.00171.072.03082.08582.11033.10554-.09781.13179-.24436.02707-.3074-.21651-.72611-1.55407-.47365-1.86217.582-.70447,3.70989-2.23647,5.69215-3.4548.632-.39585,1.09727-.85286.897-1.10764a1.18279,1.18279,0,0,1,.66155.59739,1.82377,1.82377,0,0,1,.27811,1.48473,45.36251,45.36251,0,0,1-4.56726,2.54391c1.00517-.46912,2.234-.92147,3.3202-1.29868.89359-.30812,4.31651-1.52267,4.95714-1.22006a2.41736,2.41736,0,0,1,.87171,2.2638.23039.23039,0,0,1-.07042.07366C83.6235,52.21553,82.87327,52.48441,81.35777,53.31779Z" transform="translate(0 -26.75879)"/>
      <path class="cls-1" d="M82.65234,56.97567a.069.069,0,0,0,.02466.11117c.285.18215,3.766-.21157,6.68944-.80886.15564-.03436.20342.13.07487.18162-.55.20285-1.6781.53289-3.17191.89705-1.49407.364-4.07119.83842-4.47834.57831a2.1061,2.1061,0,0,1-.548-.84706,1.58126,1.58126,0,0,1-.09161-1.26242.75875.75875,0,0,1,.19311-.18239,33.0199,33.0199,0,0,1,5.25495-2.45186l4.1579-1.66211a4.71044,4.71044,0,0,0-1.91009-.36057c-.27564.07244-.0468.58164.10591.85124.03694.06183-.02979.07647-.07042.05049a1.83055,1.83055,0,0,1-.80174-1.25752c.18181-.76294,1.317-.9548,1.58621-.89752a9.92757,9.92757,0,0,1,2.53006,1.00517c.56256-.25222,1.03595-.48472,1.38078-.66566.65421-.36565,1.06231-.73534.89606-1.01354a1.14967,1.14967,0,0,1,.54361.61478,2.19769,2.19769,0,0,1,.0611,1.7589.22889.22889,0,0,1-.07928.06416l-.8687.343a24.10169,24.10169,0,0,1,4.819,4.09216c.032.03953-.02587.04067-.03941.032-.82511-.62278-2.35863-1.60257-3.913-2.51948-.30739-.17719-1.12539-.66155-2.04587-1.13507l-4.57437,1.83547C88.22629,54.38366,83.01666,56.40584,82.65234,56.97567Z" transform="translate(0 -26.75879)"/>
    </g>
    <g>
      <path class="cls-1" d="M29.56447,61.3761a2.47685,2.47685,0,1,1-2.17314-3.66884,2.51207,2.51207,0,0,1,2.16645,1.261c-.42254.21461-.456.23466-.92558.46943a1.412,1.412,0,0,0-1.24087-.7042,1.44875,1.44875,0,1,0,0,2.89749h0a1.361,1.361,0,0,0,1.26771-.72437h-.10729c-.21462,0-.70429.0067-.97254.0067a.78181.78181,0,0,1-.18785-.0067v-.88536c.67742,0,1.62316.00677,2.44815.00677A3.042,3.042,0,0,1,29.56447,61.3761Z" transform="translate(0 -26.75879)"/>
      <path class="cls-1" d="M32.52192,62.64374a2.47649,2.47649,0,1,1,.01033,0Zm-1.46216-2.47486A1.45552,1.45552,0,1,0,32.52192,58.7,1.47434,1.47434,0,0,0,31.05976,60.16888Z" transform="translate(0 -26.75879)"/>
      <path class="cls-1" d="M37.73973,62.64374a2.47825,2.47825,0,1,1,2.48156-2.47494v.00008A2.47307,2.47307,0,0,1,37.75,62.64374ZM36.2775,60.16888A1.45551,1.45551,0,1,0,37.73973,58.7,1.4744,1.4744,0,0,0,36.2775,60.16888Z" transform="translate(0 -26.75879)"/>
      <path class="cls-1" d="M40.82457,57.79454h2.06579a2.1003,2.1003,0,0,1,2.17307,2.36761,2.12825,2.12825,0,0,1-2.17307,2.42121H40.82457Zm1.053,3.90349h.939c.6104,0,1.19391-.37557,1.19391-1.4353,0-.96583-.34212-1.5829-1.38169-1.5829h-.75121Z" transform="translate(0 -26.75879)"/>
      <path class="cls-1" d="M48.75184,61.6913v.8921H47.73241v-4.809h3.49438v.88537H48.75184v1.07981H50.9384v.93231H48.75184Z" transform="translate(0 -26.75879)"/>
      <path class="cls-1" d="M54.09037,62.64374a2.47653,2.47653,0,1,1,.01027,0Zm-1.46212-2.47486A1.4555,1.4555,0,1,0,54.09037,58.7,1.47433,1.47433,0,0,0,52.62825,60.16888Z" transform="translate(0 -26.75879)"/>
      <path class="cls-1" d="M59.3081,62.64374a2.47648,2.47648,0,1,1,.01039,0ZM57.846,60.16888A1.4555,1.4555,0,1,0,59.3081,58.7,1.4744,1.4744,0,0,0,57.846,60.16888Z" transform="translate(0 -26.75879)"/>
      <path class="cls-1" d="M62.393,57.79454h2.06577a2.10032,2.10032,0,0,1,2.17312,2.36761,2.12827,2.12827,0,0,1-2.17312,2.42121H62.393Zm1.053,3.90349h.939c.6103,0,1.19386-.37557,1.19386-1.4353,0-.96583-.34209-1.5829-1.38165-1.5829h-.75122Z" transform="translate(0 -26.75879)"/>
    </g>
    <g>
      <path class="cls-1" d="M26.25966,72.05818c-.06551.16617-.1058.32234-.07048.38276l.01507.02518c0,.04535-.4533-.12086-.4533-.39786-.03527,0-.07048-.00506-.10076-.00506-.47841-.02519-1.32959-.39281-1.44036-.87129-.19136-.841,1.46054-1.67711,3.33911-2.01456.1561-.19639.31225-.38783.44318-.54392-.06043-.04535-.12591-.12087-.12591-.16119,0-.05034.11086-.06046.33243-.08058a6.25332,6.25332,0,0,0,1.2591-1.70732c.005-.08054-.01012-.12086-.04529-.141-.00508-.00506.0151-.0151.0302-.01008a.4923.4923,0,0,1,.23167.131c.22663.19638.31222.3626.29711.44823a5.0969,5.0969,0,0,1-.60935.81084c-.14107.17124-.267.31223-.39293.4533a3.03124,3.03124,0,0,0,2.02466-1.28932c.15614-.51371-.418-.76047-.86124-.80582a5.00622,5.00622,0,0,0-2.5635.50363c-.418.20145-1.02737.60434-1.02737.94681,0,.12087.12591.22667.44318.30721.10068.02518.08058.06544.02011.06045a1.14987,1.14987,0,0,1-.60436-.16618.55723.55723,0,0,1-.282-.45832c.01511-.52375.64974-1.00729,1.53613-1.28928a4.99221,4.99221,0,0,1,2.6491-.141,1.47525,1.47525,0,0,1,1.14824,1.39508c-.136.54894-.99716.88138-1.78789,1.05756a1.88438,1.88438,0,0,1,1.244.63462,5.87472,5.87472,0,0,1,.831.20144c.05539.02013.06545.06041-.02018.04033a5.0154,5.0154,0,0,0-.75547-.12593.66441.66441,0,0,1,.06049.21655c.03021.71013-.85118,1.40014-2.13548,1.939A9.07379,9.07379,0,0,1,26.25966,72.05818Zm-.34752-.45326a13.55006,13.55006,0,0,1,1.30437-2.00954c-.14093.04535-.287.08564-.43308.136-1.49584.49355-2.28149,1.24393-2.16063,1.65192.05041.16618.25182.21149.423.23161a3.85113,3.85113,0,0,0,.86631-.01Zm2.16562-2.22609c-.11079.136-.23167.282-.36262.4482a13.62006,13.62006,0,0,0-1.16343,1.67714,12.40674,12.40674,0,0,0,2.14549-.695c1.15835-.47844,1.8534-1.21875,1.87855-1.58135a10.06363,10.06363,0,0,0-2.498.151Zm.63962-.73026c-.11587.12589-.23675.25688-.3677.413a9.22868,9.22868,0,0,1,2.20094.03025c-.12587-.30725-.74034-.48853-1.30445-.48853a4.12406,4.12406,0,0,0-.52881.04531Z" transform="translate(0 -26.75879)"/>
      <path class="cls-1" d="M33.9957,68.82985a.66152.66152,0,0,1,.19635.32235c0,.01008-.005.01514-.01009.02519l-.12587.141A3.62514,3.62514,0,0,0,33.351,70.3458c0,.01511,0,.02519.02509.02519a9.47322,9.47322,0,0,0,1.62175-1.34468c.03529-.0353.09066.005.06546.04029a8.43019,8.43019,0,0,1-1.7375,1.667.0682.0682,0,0,1-.02519.00506.582.582,0,0,1-.33243-.141c-.12591-.10577-.24678-.26186-.23675-.36763a.18086.18086,0,0,1,.0101-.05033,5.5349,5.5349,0,0,1,.59429-.83606c-.16616.17626-.45322.4684-.64968.63462a3.2131,3.2131,0,0,1-1.118.7554c-.14609,0-.57414-.29716-.57414-.564a2.80853,2.80853,0,0,1,1.05763-1.42027,2.75376,2.75376,0,0,1,1.40509-.73026c.4735,0,.85122.23667.85122.564C34.308,68.65865,34.12659,68.76948,33.9957,68.82985Zm-.32741-.136a.36215.36215,0,0,1,.23163.05543.54776.54776,0,0,0,.08058-.277c.0101-.12086-.04529-.2065-.151-.2065a2.83884,2.83884,0,0,0-1.2742.77561,4.00154,4.00154,0,0,0-1.04755,1.2994c0,.0151.00508.03523.04029.03523.19142,0,2.10019-1.254,2.14046-1.64686A.04393.04393,0,0,0,33.66829,68.69388Z" transform="translate(0 -26.75879)"/>
      <path class="cls-1" d="M34.78141,70.33576c-.0957.17626-.126.29206-.11077.31725.03521.03021-.0101.05037-.06545.04029S34.162,70.381,34.21234,70.23a1.69273,1.69273,0,0,1,.19137-.3526l.26183-.38774c.20655-.30219.55908-.80582.685-.99718.12591-.19643.19646-.38786.10577-.4331a.31868.31868,0,0,1,.24677.06042c.24172.15613.31231.33243.30721.40292a4.02374,4.02374,0,0,1-.4734.685c.126-.141.26193-.277.40791-.413a4.64745,4.64745,0,0,1,1.11814-.81586c.10576-.02012.27692.24676.26186.48849a.63554.63554,0,0,1-.10069.32737.242.242,0,0,0-.04539-.15107.31316.31316,0,0,0-.28206-.09066,1.7915,1.7915,0,0,0-.98707.4684A4.8362,4.8362,0,0,0,34.78141,70.33576Z" transform="translate(0 -26.75879)"/>
      <path class="cls-1" d="M40.67413,68.82985a.66183.66183,0,0,1,.19634.32235c0,.01008-.005.01514-.0101.02519l-.12587.141a3.62521,3.62521,0,0,0-.705,1.02738c0,.01511,0,.02519.02509.02519a9.47346,9.47346,0,0,0,1.62173-1.34468c.03527-.0353.0907.005.06551.04029a8.43144,8.43144,0,0,1-1.73754,1.667.068.068,0,0,1-.02515.00506.58206.58206,0,0,1-.33243-.141c-.12587-.10577-.24677-.26186-.23675-.36763a.18014.18014,0,0,1,.0101-.05033,5.5333,5.5333,0,0,1,.59426-.83606c-.16616.17626-.45323.4684-.64965.63462a3.21306,3.21306,0,0,1-1.118.7554c-.14609,0-.57419-.29716-.57419-.564a2.80881,2.80881,0,0,1,1.05763-1.42027,2.75388,2.75388,0,0,1,1.40513-.73026c.47346,0,.85118.23667.85118.564C40.98634,68.65865,40.805,68.76948,40.67413,68.82985Zm-.32745-.136a.36253.36253,0,0,1,.23167.05543.54827.54827,0,0,0,.08058-.277c.0101-.12086-.04529-.2065-.15106-.2065a2.83945,2.83945,0,0,0-1.27423.77561,4.00154,4.00154,0,0,0-1.04755,1.2994c0,.0151.00511.03523.04029.03523.19145,0,2.10019-1.254,2.14052-1.64686A.04383.04383,0,0,0,40.34668,68.69388Z" transform="translate(0 -26.75879)"/>
      <path class="cls-1" d="M43.53981,69.49468a3.32787,3.32787,0,0,0-.51375.8461c0,.0151.00508.02515.02519.02515a9.5797,9.5797,0,0,0,1.60663-1.33966c.03526-.0353.09066.005.06545.04029-.11076.141-.37772.45326-.67991.76553-.32737.33239-.92164.90652-1.08279.90652-.23675,0-.56411-.33243-.549-.52376a.17727.17727,0,0,1,.01006-.05037,6.4764,6.4764,0,0,1,.65465-1.0173c.23678-.32737.61947-.79075.61947-.80586a.00984.00984,0,0,0-.00955-.01008h-.00042a4.84207,4.84207,0,0,0-1.08785.84611c-.48349.45832-1.32455,1.29944-1.27928,1.45553.00508.01005.01008.02017.02018.02017.04529.0151-.0101.05037-.06545.04029-.11589-.02017-.413-.34248-.38273-.46334A15.66445,15.66445,0,0,1,42.039,68.49244c.12587-.19643.19642-.38786.10577-.4331a.37006.37006,0,0,1,.267.08058.57039.57039,0,0,1,.27693.38276,14.1963,14.1963,0,0,1-.95187,1.32961c.22161-.26692.50867-.559.7656-.81087.21147-.20647,1.01725-1.0073,1.23893-1.0073a.54239.54239,0,0,1,.29713.14609c.20648.16614.2568.31725.25181.37774a.07154.07154,0,0,1-.0101.03021C44.0334,68.88026,43.85708,69.05652,43.53981,69.49468Z" transform="translate(0 -26.75879)"/>
      <path class="cls-1" d="M46.27967,70.34078c0,.0151.005.02515.02518.02515a9.63963,9.63963,0,0,0,1.60656-1.33966c.03528-.0353.09564,0,.07047.03523-.1108.14609-.35254.42306-.68485.77059a4.29776,4.29776,0,0,1-1.08286.90652.70958.70958,0,0,1-.29214-.12087c-.151-.1058-.25181-.23169-.24677-.32737a.23856.23856,0,0,1,.0201-.08058,4.63755,4.63755,0,0,1,.408-.71515l-.25686.24177a4.36191,4.36191,0,0,1-1.34977.99718c-.14107,0-.55912-.30725-.57917-.544a.76777.76777,0,0,1,.11075-.37264,4.09432,4.09432,0,0,1,2.15055-1.78291.544.544,0,0,1,.06045-.00506c.47338,0,.64464.18638.66985.31725.43808-.61441.9216-1.27418,1.10292-1.61662.11078-.2065.15607-.37275.06547-.418a.36276.36276,0,0,1,.23664.06038.76745.76745,0,0,1,.33747.46342.07265.07265,0,0,1-.01.0302l-1.29943,1.81308A11.01864,11.01864,0,0,0,46.27967,70.34078Zm-1.84338-.01008a.03149.03149,0,0,0,.02726.03523h.008A5.52233,5.52233,0,0,0,46.39043,68.986a2.53043,2.53043,0,0,0,.35254-.60438.11612.11612,0,0,0-.12089-.1007c-.549,0-1.59651,1.13319-1.92384,1.58143-.21152.2921-.26692.413-.26193.46836Z" transform="translate(0 -26.75879)"/>
      <path class="cls-1" d="M53.46172,68.21038c.6043-.54392,1.249-1.32958,1.249-1.75263,0-.146-.15111-.21152-.28705-.22161a4.99768,4.99768,0,0,0-3.188,1.53106c-1.06775,1.04759-1.80809,2.27136-1.67714,3.1326.05539.38277.38276.61446.87631.61446,1.07278,0,2.94124-1.09286,4.67378-2.71964.07556-.07049.0705.03025.04025.06042-.96183,1.0375-3.00669,3.07219-4.21032,3.07219-.67995,0-1.91884-.39285-1.99946-1.39a4.09816,4.09816,0,0,1,1.44036-2.775,5.9151,5.9151,0,0,1,3.50529-1.81307c.94178,0,1.22384.57915,1.249.8259.04029.36264-.64965,1.11809-1.6418,1.521C53.43658,68.33128,53.366,68.296,53.46172,68.21038Z" transform="translate(0 -26.75879)"/>
      <path class="cls-1" d="M55.84413,68.3263a1.18,1.18,0,0,1,.67993-.30725.77316.77316,0,0,1,.77561.66981,4.92408,4.92408,0,0,0,.78561-.01008c.06049-.01008.126.03523-.03016.08564a3.38256,3.38256,0,0,1-.78064.09564,2.86425,2.86425,0,0,1-2.06991,1.87353c-.50363,0-.95187-.24177-.95187-.66985C54.2527,69.45439,55.18943,68.5126,55.84413,68.3263ZM54.86206,70.507c.44318,0,1.51591-.94681,1.88357-1.65691a1.67105,1.67105,0,0,1-.5691-.14107,2.55033,2.55033,0,0,0-1.44036,1.6318C54.73621,70.43646,54.74119,70.507,54.86206,70.507ZM56.65,68.18519a.33466.33466,0,0,0-.27692.23671c-.02017.12589.17116.19643.46326.23671a.54916.54916,0,0,0,.04531-.22663C56.8816,68.2507,56.81111,68.155,56.65,68.18519Z" transform="translate(0 -26.75879)"/>
      <path class="cls-1" d="M57.79835,68.59318c-.08057-.02515-.141-.06544-.141-.12091a.89889.89889,0,0,1,.25688-.38774,2.31041,2.31041,0,0,0,.32231.141,16.569,16.569,0,0,0,.98211-1.48571c.11079-.2065.15606-.37268.06544-.418a.31058.31058,0,0,1,.23663.05539.65184.65184,0,0,1,.32235.46335.07133.07133,0,0,1-.01.03028l-1.00224,1.45048a2.67992,2.67992,0,0,0,.287.01506,3.41437,3.41437,0,0,0,.72524-.07053c.03021-.01005.03527.03024.01008.04535a3.32119,3.32119,0,0,1-1.23393.3072l-.34239.47343a3.18211,3.18211,0,0,1,.136.88137C58.433,71.83158,57.189,73,56.79612,73c-.30725,0-.74537-.30219-.75031-.59935A7.74664,7.74664,0,0,1,57.24439,69.681c.16116-.27194.418-.66479.64965-.98208A.48852.48852,0,0,0,57.79835,68.59318Zm.39281.61951a14.1851,14.1851,0,0,0-1.70731,3.465c0,.0705.04029.06544.06049.06544a2.66406,2.66406,0,0,0,1.04245-1.0576A3.58461,3.58461,0,0,0,58.19116,69.21269Z" transform="translate(0 -26.75879)"/>
      <path class="cls-1" d="M59.57122,68.59318c-.08062-.02515-.14107-.06544-.14107-.12091a.89957.89957,0,0,1,.25691-.38774,2.31041,2.31041,0,0,0,.32231.141,16.55791,16.55791,0,0,0,.98208-1.48571c.11082-.2065.15609-.37268.06551-.418a.31063.31063,0,0,1,.23664.05539.65191.65191,0,0,1,.32231.46335.07049.07049,0,0,1-.01008.03028l-1.00217,1.45048a2.68011,2.68011,0,0,0,.28705.01506,3.414,3.414,0,0,0,.7252-.07053c.03028-.01005.0353.03024.01008.04535a3.32176,3.32176,0,0,1-1.23389.3072l-.34244.47343a3.17876,3.17876,0,0,1,.136.88137C60.20576,71.83158,58.96182,73,58.5689,73c-.30713,0-.74532-.30219-.75038-.59935a7.7489,7.7489,0,0,1,1.1987-2.71963c.16115-.27194.418-.66479.64964-.98208A.49025.49025,0,0,0,59.57122,68.59318Zm.39281.61951a14.18549,14.18549,0,0,0-1.70732,3.465c0,.0705.04033.06544.06049.06544a2.66435,2.66435,0,0,0,1.04249-1.0576A3.58444,3.58444,0,0,0,59.964,69.21269Z" transform="translate(0 -26.75879)"/>
      <path class="cls-1" d="M62.85,68.02906a.749.749,0,0,1,.67483.58927,3.08146,3.08146,0,0,1-2.17062,1.08787,1.415,1.415,0,0,0-.272.6094c-.005.07551.05041.1058.131.1058a.8364.8364,0,0,0,.34252-.08062,9.41257,9.41257,0,0,0,2.14041-1.31451c.02016-.0151.09066.02519.07049.04532a5.86287,5.86287,0,0,1-2.46272,1.6771c-.24177,0-.74536-.40791-.75042-.6547a1.182,1.182,0,0,1,.24177-.62956,4.205,4.205,0,0,1,1.11306-1.05759A1.96584,1.96584,0,0,1,62.85,68.02906Zm-1.39,1.54619a3.57,3.57,0,0,0,1.22385-.65474c.33742-.25181.52874-.57915.49347-.60433C62.77439,68.31618,61.96854,68.986,61.46,69.57525Z" transform="translate(0 -26.75879)"/>
      <path class="cls-1" d="M65.36316,68.02906a.74905.74905,0,0,1,.67483.58927,3.08146,3.08146,0,0,1-2.17058,1.08787,1.41489,1.41489,0,0,0-.27194.6094c-.0051.07551.05029.1058.13091.1058a.83576.83576,0,0,0,.34251-.08062,9.41151,9.41151,0,0,0,2.14041-1.31451c.02016-.0151.09066.02519.0705.04532a5.86253,5.86253,0,0,1-2.46273,1.6771c-.24177,0-.7454-.40791-.75038-.6547a1.182,1.182,0,0,1,.24173-.62956,4.20516,4.20516,0,0,1,1.11306-1.05759A1.96585,1.96585,0,0,1,65.36316,68.02906Zm-1.39,1.54619a3.57007,3.57007,0,0,0,1.22385-.65474c.33741-.25181.52877-.57915.49358-.60433C65.28768,68.31618,64.48186,68.986,63.97317,69.57525Z" transform="translate(0 -26.75879)"/>
    </g>
  </g>
  <text class="cls-2" transform="translate(18.07666 7.44287)">HUNGRYBUZZ</text>
</svg>
