<svg id="Layer_1" data-name="Layer 1" xmlns="http://www.w3.org/2000/svg" viewBox="0 0 150.03223 150.12549">
  <defs>
    <style>
      .cls-1, .cls-10, .cls-11, .cls-2, .cls-3, .cls-4, .cls-5, .cls-6, .cls-7, .cls-8, .cls-9 {
        isolation: isolate;
        fill: #dbc6bc;
        font-family: MyriadPro-Regular, Myriad Pro;
      }

      .cls-1 {
        font-size: 14.00039px;
      }

      .cls-2 {
        font-size: 14.0003px;
      }

      .cls-3 {
        font-size: 14.00032px;
      }

      .cls-4 {
        font-size: 14.00033px;
      }

      .cls-5 {
        font-size: 14.00029px;
      }

      .cls-6 {
        font-size: 14.00033px;
      }

      .cls-7 {
        font-size: 14.00036px;
      }

      .cls-8 {
        font-size: 14.00035px;
      }

      .cls-9 {
        font-size: 14.00029px;
      }

      .cls-10 {
        font-size: 14.00034px;
      }

      .cls-11 {
        font-size: 14.00025px;
      }
    </style>
  </defs>
  <title>hungrybuzz_logo_spin</title>
  <text class="cls-1" transform="translate(72.04281 11.71531) rotate(1.29212)">H</text>
  <text class="cls-2" transform="matrix(0.98228, 0.18741, -0.18741, 0.98228, 82.64594, 12.07825)">U</text>
  <text class="cls-3" transform="translate(92.95783 14.16292) rotate(20.44103)">N</text>
  <text class="cls-4" transform="matrix(0.86539, 0.5011, -0.5011, 0.86539, 102.93952, 18.02605)">G</text>
  <text class="cls-4" transform="translate(111.96653 23.45468) rotate(38.88993)">R</text>
  <text class="cls-4" transform="translate(118.8496 29.13027) rotate(46.92097)">Y</text>
  <text class="cls-5" transform="translate(124.92598 35.77491) rotate(55.02201)">B</text>
  <text class="cls-6" transform="translate(130.08987 43.25873) rotate(63.90205)">U</text>
  <text class="cls-4" transform="translate(134.57985 52.8068) rotate(72.90002)">Z</text>
  <text class="cls-7" transform="translate(137.19379 61.68687) rotate(81.31282)">Z</text>
  <text class="cls-8" transform="matrix(-0.13702, 0.99057, -0.99057, -0.13702, 138.42409, 80.19446)">R</text>
  <text class="cls-4" transform="translate(137.05535 89.14715) rotate(105.81057)">E</text>
  <text class="cls-3" transform="translate(134.65958 97.23593) rotate(113.49596)">S</text>
  <text class="cls-4" transform="translate(131.19803 104.9379) rotate(121.17616)">T</text>
  <text class="cls-3" transform="translate(127.34558 111.3436) rotate(128.63368)">A</text>
  <text class="cls-9" transform="translate(121.24992 118.86125) rotate(137.54027)">U</text>
  <text class="cls-4" transform="translate(113.33226 125.868) rotate(146.36537)">R</text>
  <text class="cls-10" transform="matrix(-0.90682, 0.42152, -0.42152, -0.90682, 105.71067, 130.84486)">A</text>
  <text class="cls-6" transform="translate(96.55581 134.99433) rotate(164.50105)">N</text>
  <text class="cls-4" transform="matrix(-0.99298, 0.11829, -0.11829, -0.99298, 86.17664, 137.66429)">T</text>
  <text class="cls-4" transform="translate(68.42145 138.31288) rotate(-170.16515)">&amp;</text>
  <text class="cls-6" transform="translate(49.82893 133.40479) rotate(-152.79156)">C</text>
  <text class="cls-4" transform="translate(41.27253 128.88809) rotate(-143.85202)">A</text>
  <text class="cls-4" transform="matrix(-0.71419, -0.69996, 0.69996, -0.71419, 33.23647, 122.80266)">F</text>
  <text class="cls-11" transform="translate(27.31946 116.86374) rotate(-128.01177)">E</text>
  <text class="cls-4" transform="matrix(-0.36897, -0.92944, 0.92944, -0.36897, 17.63534, 102.05512)">B</text>
  <text class="cls-6" transform="translate(14.35245 93.57602) rotate(-102.93119)">A</text>
  <text class="cls-6" transform="translate(12.2479 83.71676) rotate(-94.28369)">R</text>
  <text class="cls-6" transform="translate(12.37086 65.3996) rotate(-77.12451)">U</text>
  <text class="cls-6" transform="translate(14.91443 55.14392) rotate(-68.45812)">T</text>
  <text class="cls-6" transform="matrix(0.48531, -0.87434, 0.87434, 0.48531, 17.6325, 48.20309)">A</text>
  <text class="cls-4" transform="translate(22.60182 39.45569) rotate(-51.64535)">H</text>
  <text class="cls-6" transform="matrix(0.83135, -0.55576, 0.55576, 0.83135, 36.21464, 24.96714)">U</text>
  <text class="cls-4" transform="translate(45.09769 19.25973) rotate(-25.18171)">S</text>
  <text class="cls-6" transform="translate(52.74057 15.72221) rotate(-16.76696)">A</text>
</svg>
