<svg id="Layer_1" data-name="Layer 1" xmlns="http://www.w3.org/2000/svg" viewBox="0 0 250.47949 250.53027">
  <defs>
    <style>
      .cls-1, .cls-2 {
        fill: #c8693a;
      }

      .cls-2 {
        font-size: 14.04807px;
        font-family: RussoOne-Regular, Russo One;
      }

      .cls-3 {
        font-size: 23.35931px;
        fill: #dbc6bc;
        font-family: MyriadPro-Regular, Myriad Pro;
      }
    </style>
  </defs>
  <title>hungrybuzz_logo_footer</title>
  <g>
    <g>
      <path class="cls-1" d="M434.935,498.93836c-2.84083,3.39733-4.69488,7.23842-3.96933,8.8103.52554,1.095,2.83046.76288,3.79387.50127.55711-.15269.588.09047.23863.258a8.1092,8.1092,0,0,1-3.57456.91243,3.11944,3.11944,0,0,1-2.72575-1.50083c-1.598-3.33114,1.15262-8.2901,5.527-12.194a31.05922,31.05922,0,0,1,8.26939-5.34246c8.39185-3.65322,13.07086.66442,13.80067,2.66414.952,2.58088-1.18737,6.90273-4.97569,11.01271a50.34511,50.34511,0,0,1-8.26032,6.91418,49.2892,49.2892,0,0,0,12.09682,2.27811c1.80188.05254,5.26978-.00637,6.69076-.688a3.3435,3.3435,0,0,0,2.18833-3.08436c.01505-.20782.10753-.19482.17351.00275a7.06628,7.06628,0,0,1,.22287,2.61536,5.54914,5.54914,0,0,1-.605,2.38235,2.86869,2.86869,0,0,1-.97124.7237c-4.44944,2.13444-15.90063-.76854-20.597-2.61352a46.09542,46.09542,0,0,0-1.00728,8.59325c-.0158.98192-.00593,2.496.27343,2.36179.51254-.24575,2.8309-5.62775,3.50783-7.44274.08573-.29889.271-.33072.24418-.08848-.20388,2.56238-1.419,7.6156-2.49067,8.12971a4.5799,4.5799,0,0,1-1.92279.2922,2.56867,2.56867,0,0,1-2.31447-1.23981c-.66026-1.31664-.02919-5.97509.73779-10.46959l-.33472-.04014c-1.37112-.23032-1.543-3.157-.39233-3.56582.17426-.05492.67725.277,1.31938.59945.24068-1.29041.81128-3.68484,1.13687-5.21642,1.2321-5.37666,2.48194-8.3263,1.81138-9.724a.65337.65337,0,0,0-.45519-.41192c-.01144-.02331.00075-.05768.07073-.09129.60577-.29064,3.44729.49555,3.84961,1.33422.13391.27937-.23081,2.08783-1.05233,4.975-.71248,2.577-1.47433,5.34979-2.086,8.13645a70.32724,70.32724,0,0,0,5.998-6.37368c3.32051-3.77074,5.27534-8.11865,4.05706-10.65783-.74842-1.56093-3.12607-2.45491-7.94336-.43037A27.86985,27.86985,0,0,0,434.935,498.93836Z" transform="translate(-378.1709 -375.40332)"/>
      <path class="cls-1" d="M465.0935,494.4717c1.52489-.39654,3.7792.77885,4.11079,2.05383.32479,1.2499-4.80229,6.98733-9.37064,8.202a7.25946,7.25946,0,0,0-.56315,3.376c.07235.38154.38645.45993.78634.356a4.27873,4.27873,0,0,0,1.596-.84207,48.2769,48.2769,0,0,0,8.92808-9.2881c.08023-.101.48249.00787.4082.134-2.47562,4.54068-7.55965,10.85388-10.05977,11.50411-1.19972.31216-4.22662-1.06274-4.57-2.28124a6.05711,6.05711,0,0,1,.38726-3.437,21.573,21.573,0,0,1,4.15978-6.68677A10.08429,10.08429,0,0,1,465.0935,494.4717Zm-4.90388,9.46932c1.896-.92014,3.83618-3.10615,5.22985-4.8298,1.34988-1.6855,1.877-3.55757,1.66954-3.6372C465.08913,495.99422,461.954,500.3595,460.18962,503.941Z" transform="translate(-378.1709 -375.40332)"/>
      <path class="cls-1" d="M474.93951,499.20547a42.93782,42.93782,0,0,1,8.38954-3.457c.19994-.05849.19444.23016.075.30191a63.87857,63.87857,0,0,0-6.916,3.5054c1.25616.31945,2.44245,1.01656,2.56254,1.75607.09922.61187.05455,1.14275-.93962,2.2725a14.99954,14.99954,0,0,1-7.22386,4.02663c-1.65728.26927-3.53658-1.30995-3.452-2.23975.12447-1.32872,3.32914-3.99561,6.66584-5.68942-1.53633-.27386-3.24223-.62476-3.43311-1.79772-.34378-2.11642,4.38541-5.71138,7.29221-6.18378,1.53-.24855,3.13476.93018,3.28409,1.84817.19482,1.19848-2.13853,2.62459-2.87789,2.74474-.15333.02487-.31853-.02687-.25449-.11584.38452-.53342,1.98489-2.44244,1.90622-2.92687-.01656-.10213-.07191-.11934-.2758-.08611a10.89968,10.89968,0,0,0-4.25263,2.33988c-1.683,1.39881-2.4958,2.83959-2.13621,3.12127A5.15521,5.15521,0,0,0,474.93951,499.20547Zm1.42217,1.1823c-.03718-.22962-.10073-.29776-.58441-.37621-.83058.52754-1.65653,1.08055-2.54285,1.748-2.82453,2.10773-4.51936,4.24141-4.46957,4.54743.5556.19757,4.602-2.606,5.778-3.58229C474.96045,502.39515,476.4862,501.15259,476.36168,500.38777Z" transform="translate(-378.1709 -375.40332)"/>
      <path class="cls-1" d="M482.77189,503.205c.00712.07726.03749.12624.14027.11653.54017-.05012,4.56005-3.9778,7.67268-7.61376.16321-.19682.38608-.03577.27386.15624-.49635.79843-1.59956,2.32791-3.13238,4.26035s-4.32854,5.072-5.10026,5.14375a3.37762,3.37762,0,0,1-1.52808-.53272c-.74485-.47553-1.33994-1.01688-1.35968-1.50806a1.21765,1.21765,0,0,1,.06479-.421,52.97358,52.97358,0,0,1,4.238-8.28066l3.62674-6.20034a7.55141,7.55141,0,0,0-2.77322,1.42508c-.2778.36321.51372.78241.97247.97329.10753.04187.03755.12625-.03949.13359a2.93735,2.93735,0,0,1-2.25394-.80259c-.52122-1.145.72711-2.50621,1.12457-2.69888a15.93262,15.93262,0,0,1,4.19339-1.21968c.46356-.87326.83377-1.63414,1.09258-2.20295.46787-1.1072.62044-1.97755.136-2.166a1.8443,1.8443,0,0,1,1.29376.243,3.52525,3.52525,0,0,1,1.80975,2.1668.36839.36839,0,0,1-.03712.15927l-.76228,1.2902c3.29245-.30585,8.86884-.04565,10.13255.43366.07979.01856.00712.07721-.01856.07963-1.6581.02428-4.56485.2942-7.436.66485-.56353.07823-2.07617.27062-3.70815.57788l-3.98352,6.83006C487.27545,494.43259,482.67148,502.12469,482.77189,503.205Z" transform="translate(-378.1709 -375.40332)"/>
      <path class="cls-1" d="M502.23991,494.37275a3.39078,3.39078,0,0,1,1.0274,1.64105c.00081.05158-.02487.07785-.04974.12986l-.63744.731c-2.216,2.58494-3.53189,4.849-3.55207,5.31424.00086.07742.00162.129.13045.12738.56865-.0069,4.86477-3.65058,8.23421-6.99871.17858-.183.4655.02017.33866.20248-1.19336,1.71992-7.18669,8.17459-8.80837,8.6594a.34741.34741,0,0,1-.12883.02751,2.98714,2.98714,0,0,1-1.71378-.70261c-.65238-.53461-1.28227-1.32791-1.23727-1.871a.923.923,0,0,1,.04867-.25881,28.38456,28.38456,0,0,1,2.996-4.32557c-.8417.91459-2.29586,2.43079-3.29283,3.29558-2.608,2.25378-4.732,3.93334-5.68786,3.945-.74917.00912-2.96367-1.48831-2.98023-2.85755-.02012-1.65335,2.42108-4.861,5.33614-7.351,2.48037-2.123,5.30178-3.81109,7.16176-3.83359,2.42825-.02967,4.38071,1.16093,4.40127,2.84C503.83083,493.475,502.90772,494.05444,502.23991,494.37275Zm-1.68772-.67714a1.85989,1.85989,0,0,1,1.19179.26976,2.81217,2.81217,0,0,0,.39595-1.426c.04425-.6206-.24542-1.05621-.788-1.04973-1.679.02055-4.80186,2.43554-6.4872,4.058-2.88582,2.774-5.303,5.85225-5.29228,6.73047.00114.07742.02806.18058.209.17842.9816-.01209,10.694-6.56392,10.87622-8.58133A.22539.22539,0,0,0,500.55219,493.69561Z" transform="translate(-378.1709 -375.40332)"/>
      <path class="cls-1" d="M520.483,495.57857c-2.55666,2.58429-5.87749,6.65257-5.955,7.19019-.0075.077.01343.131.11621.14087.54016.05158,5.12-3.066,8.857-6.0565.19714-.16283.4888.04661.343.2144-.637.69166-2.00657,1.98817-3.87329,3.60041-1.86673,1.612-5.19981,4.17419-5.97121,4.10049a3.79452,3.79452,0,0,1-2.47045-2.935c.07861-.82293,2.27881-3.2077,3.73421-4.85921-3.29008,2.92925-7.38263,6.37892-8.94788,7.00783a.34376.34376,0,0,1-.13121.01344c-1.02859-.0982-2.88814-2.09257-2.77-3.32677.09085-.95155,3.52714-4.59371,6.59434-7.90764a5.94113,5.94113,0,0,0,1.10876-1.55494.44689.44689,0,0,0-.35721-.605,1.34705,1.34705,0,0,1,1.22535.48028c1.30164,1.31825,1.42378,2.21207,1.36368,2.56972a.36823.36823,0,0,1-.06636.14933s-2.02243,1.88292-3.115,2.998c-2.24407,2.30277-3.903,4.454-3.95234,4.96825-.0095.10294.02687.262.18139.27682.87407.08357,9.84051-6.29993,11.85657-8.39088a3.28759,3.28759,0,0,0,1.08707-1.86851.41416.41416,0,0,0-.19207-.43344,1.93743,1.93743,0,0,1,1.22066.53185,3.49606,3.49606,0,0,1,1.38068,2.38968.36777.36777,0,0,1-.06642.14939S521.14564,494.8894,520.483,495.57857Z" transform="translate(-378.1709 -375.40332)"/>
      <path class="cls-1" d="M521.3997,503.37869c-.65357.79465-.91831,1.34863-.86657,1.49009.1482.18656-.0996.24386-.369.1393-.26911-.1045-1.92839-2.00339-1.52769-2.71528a8.67217,8.67217,0,0,1,1.30638-1.58952l1.696-1.69835c1.33369-1.32122,3.59868-3.51467,4.419-4.35616.82508-.86679,1.366-1.76222.95354-2.07854a1.63648,1.63648,0,0,1,1.18424.54432,2.89361,2.89361,0,0,1,1.15543,2.32769,20.64067,20.64067,0,0,1-3.05021,2.9893c.7714-.58775,1.58855-1.14038,2.45631-1.68335,1.69521-1.01434,5.18281-2.99841,6.42359-3.02194.55246.0014,1.15548,1.51227.84407,2.7149a3.25739,3.25739,0,0,1-.82551,1.55079,1.24024,1.24024,0,0,0-.08136-.80491,1.60577,1.60577,0,0,0-1.33207-.73082,9.19124,9.19124,0,0,0-5.42667,1.39923A24.80367,24.80367,0,0,0,521.3997,503.37869Z" transform="translate(-378.1709 -375.40332)"/>
      <path class="cls-1" d="M546.1395,501.37271a3.38939,3.38939,0,0,1,.48049,1.87541c-.01538.04937-.04737.06653-.08729.10839l-.829.50289c-2.89694,1.78865-4.83828,3.54532-4.99911,3.98233-.02255.07413-.03755.12349.08616.16121.54329.16622,5.74315-1.99907,9.97048-4.16432.22563-.11988.43706.16067.2608.29582-1.65966,1.27553-9.33,5.60288-11.02243,5.57164a.34149.34149,0,0,1-.13077-.013,2.98617,2.98617,0,0,1-1.419-1.19,2.925,2.925,0,0,1-.60976-2.15833.91227.91227,0,0,1,.1249-.23189,28.38419,28.38419,0,0,1,4.16847-3.20969c-1.07958.61543-2.92569,1.6178-4.13847,2.13859-3.16912,1.35419-5.70248,2.30849-6.61642,2.02907-.71642-.21888-2.3709-2.31836-1.97063-3.62744.48329-1.581,3.78357-3.89466,7.317-5.38065,3.00791-1.26862,6.2087-2.019,7.98727-1.47531,2.32191.7099,3.81993,2.43732,3.32914,4.043C547.928,501.00088,546.87254,501.27252,546.1395,501.37271Zm-1.40161-1.1578a1.85693,1.85693,0,0,1,1.05308.619,2.8132,2.8132,0,0,0,.81084-1.23782c.23043-.57787.087-1.08092-.43151-1.23937-1.60587-.4908-5.3144.86058-7.41306,1.89375-3.59194,1.76535-6.82942,3.963-7.08628,4.80289-.02255.07407-.02805.18041.14459.23334.93892.28686,12.18142-3.00241,12.9682-4.86871A.22432.22432,0,0,0,544.73789,500.21491Z" transform="translate(-378.1709 -375.40332)"/>
      <path class="cls-1" d="M558.76267,510.252c-2.15753,1.18068-3.98114,2.31911-4.236,2.79869a.11043.11043,0,0,0,.06161.17183c.51373.24284,5.79808-1.14631,10.3858-2.69337.24068-.08632.40938.22206.21537.33034-.8227.41117-2.74473,1.27456-4.83034,2.06074-2.24644.82449-6.26039,2.1852-7.00762,1.83214-1.09818-.51863-1.88809-2.77732-1.39848-3.63186a.91127.91127,0,0,1,.15689-.21138,33.22771,33.22771,0,0,1,5.265-3.28393c1.815-.99956,4.60553-2.30989,4.63833-2.38a.0506.0506,0,0,0-.02449-.06879,24.845,24.845,0,0,0-6.89858,1.54091c-3.2466,1.06614-8.98975,3.12429-9.12171,3.94764.00156.05784.00275.11557.04942.13769.177.1693-.1569.21144-.392.04343-.49317-.34734-1.16492-2.49321-.75991-2.98752.93375-1.13018,5.95184-3.588,9.132-5.54261,1.014-.63507,1.76039-1.36827,1.43916-1.777a1.89748,1.89748,0,0,1,1.06134.9584,2.92589,2.92589,0,0,1,.44618,2.382c-.22056.46733-4.22307,2.34787-7.32734,4.08123,1.61262-.75263,3.584-1.47833,5.32665-2.0835,1.4336-.49431,6.92507-2.44283,7.95285-1.95737a3.87822,3.87822,0,0,1,1.39848,3.63186.36968.36968,0,0,1-.113.11816C562.39766,508.48365,561.19406,508.915,558.76267,510.252Z" transform="translate(-378.1709 -375.40332)"/>
      <path class="cls-1" d="M560.83959,516.12045a.11068.11068,0,0,0,.03955.17836c.45719.29226,6.04188-.33941,10.732-1.29764.24969-.05514.32635.20863.12009.29139-.88238.32543-2.69218.85492-5.08877,1.43916-2.397.584-6.53149,1.34507-7.18469.92781a3.37851,3.37851,0,0,1-.87919-1.35894,2.53686,2.53686,0,0,1-.147-2.02534,1.21582,1.21582,0,0,1,.30979-.29258,52.97468,52.97468,0,0,1,8.43059-3.93356l6.67058-2.66656a7.557,7.557,0,0,0-3.0644-.57847c-.44218.11621-.0751.93314.1699,1.36567.05929.09917-.0478.12269-.113.081a2.93681,2.93681,0,0,1-1.28626-2.01747c.29166-1.224,2.11291-1.5318,2.54479-1.43992a15.9278,15.9278,0,0,1,4.05905,1.61262c.90251-.40464,1.662-.77766,2.21521-1.06792,1.04957-.58662,1.70427-1.17971,1.43754-1.62605a1.8446,1.8446,0,0,1,.87213.98629,3.526,3.526,0,0,1,.098,2.82183.3673.3673,0,0,1-.12722.10294l-1.39368.5502c2.78661,1.78057,7.0278,5.41043,7.73117,6.56511.05136.06344-.04149.06522-.06323.05136-1.32376-.99913-3.784-2.57107-6.27776-4.04206-.49318-.28427-1.8055-1.06133-3.28221-1.821l-7.33877,2.94468C569.782,511.962,561.42405,515.20624,560.83959,516.12045Z" transform="translate(-378.1709 -375.40332)"/>
    </g>
    <g>
      <path class="cls-1" d="M475.66975,523.18013a3.97365,3.97365,0,1,1-3.48641-5.886,4.03016,4.03016,0,0,1,3.47567,2.02308c-.6779.34427-.73164.37648-1.48491.75311a2.26535,2.26535,0,0,0-1.99076-1.12974,2.32424,2.32424,0,0,0,0,4.64847,2.18346,2.18346,0,0,0,2.03381-1.16212H474.045c-.34432,0-1.12991.01074-1.56028.01074a1.25539,1.25539,0,0,1-.30137-.01074v-1.42044c1.0868,0,2.60408.01085,3.92762.01085A4.8804,4.8804,0,0,1,475.66975,523.18013Z" transform="translate(-378.1709 -375.40332)"/>
      <path class="cls-1" d="M480.41442,525.21378a3.97589,3.97589,0,1,1,3.98136-3.97046A3.96764,3.96764,0,0,1,480.41442,525.21378Zm-2.34577-3.97046a2.3351,2.3351,0,1,0,2.34577-2.35661A2.36529,2.36529,0,0,0,478.06865,521.24332Z" transform="translate(-378.1709 -375.40332)"/>
      <path class="cls-1" d="M488.78545,525.21378a3.97589,3.97589,0,1,1,3.9812-3.97046A3.96762,3.96762,0,0,1,488.78545,525.21378Zm-2.34588-3.97046a2.3351,2.3351,0,1,0,2.34588-2.35661A2.36536,2.36536,0,0,0,486.43957,521.24332Z" transform="translate(-378.1709 -375.40332)"/>
      <path class="cls-1" d="M493.73454,517.43417h3.31419c1.99066,0,3.48631,1.25885,3.48631,3.79841,0,2.22734-1.1406,3.88441-3.48631,3.88441h-3.31419Zm1.68933,6.26244h1.50644c.97928,0,1.91539-.60254,1.91539-2.30266,0-1.54949-.54885-2.5395-2.21666-2.5395h-1.20517Z" transform="translate(-378.1709 -375.40332)"/>
      <path class="cls-1" d="M506.4524,523.68582V525.117h-1.63549v-7.71514H510.423v1.42039H506.4524v1.73238h3.50793v1.49571H506.4524Z" transform="translate(-378.1709 -375.40332)"/>
      <path class="cls-1" d="M515.01711,525.21378a3.97589,3.97589,0,1,1,3.98136-3.97046A3.96768,3.96768,0,0,1,515.01711,525.21378Zm-2.34571-3.97046a2.3351,2.3351,0,1,0,2.34571-2.35661A2.36529,2.36529,0,0,0,512.6714,521.24332Z" transform="translate(-378.1709 -375.40332)"/>
      <path class="cls-1" d="M523.388,525.21378a3.97589,3.97589,0,1,1,3.98137-3.97046A3.96759,3.96759,0,0,1,523.388,525.21378Zm-2.3457-3.97046a2.3351,2.3351,0,1,0,2.3457-2.35661A2.36535,2.36535,0,0,0,521.04233,521.24332Z" transform="translate(-378.1709 -375.40332)"/>
      <path class="cls-1" d="M528.33723,517.43417h3.31415c1.9907,0,3.48641,1.25885,3.48641,3.79841,0,2.22734-1.1406,3.88441-3.48641,3.88441h-3.31415Zm1.68939,6.26244h1.50644c.97911,0,1.91534-.60254,1.91534-2.30266,0-1.54949-.5488-2.5395-2.21661-2.5395h-1.20517Z" transform="translate(-378.1709 -375.40332)"/>
    </g>
    <g>
      <path class="cls-1" d="M470.36776,540.31754c-.1051.26663-.16973.51713-.11308.61408l.02417.04041c0,.07278-.72722-.1939-.72722-.6383-.05659,0-.11308-.00809-.16164-.00809-.76751-.04041-2.13308-.63021-2.3108-1.39784-.307-1.34933,2.34317-2.69062,5.357-3.232.25044-.31508.50094-.62217.711-.87261-.09695-.07273-.202-.19391-.202-.25859,0-.08077.17787-.097.53331-.12927.99384-1.16347,1.97959-2.25426,2.02-2.73907.008-.12922-.01624-.19391-.07267-.22622-.00815-.0081.02422-.02423.04845-.01619a.7899.7899,0,0,1,.37167.21014c.36358.31508.50089.58171.47666.71912a8.17429,8.17429,0,0,1-.9776,1.30083c-.22633.27472-.42827.50094-.63037.72722,1.32521-.2505,3.00581-1.26862,3.24821-2.06851.2505-.82416-.67067-1.22006-1.3817-1.29279a8.03106,8.03106,0,0,0-4.11268.808c-.67062.32317-1.64822.96956-1.64822,1.519,0,.19391.202.36364.711.49285.16153.04041.12926.105.03226.097a1.84481,1.84481,0,0,1-.96957-.26663.89405.89405,0,0,1-.45249-.73531c.02422-.8403,1.0424-1.616,2.46446-2.06845a8.00917,8.00917,0,0,1,4.25-.22622,2.36677,2.36677,0,0,1,1.84213,2.23818c-.21813.88066-1.59977,1.414-2.86834,1.69668a3.02319,3.02319,0,0,1,1.99578,1.01812,9.42145,9.42145,0,0,1,1.3332.32317c.08886.03226.105.09695-.03237.06468a8.05069,8.05069,0,0,0-1.212-.202,1.0659,1.0659,0,0,1,.09706.34744c.04845,1.1393-1.36557,2.24628-3.426,3.11075A14.55724,14.55724,0,0,1,470.36776,540.31754Zm-.55754-.72716a21.7404,21.7404,0,0,1,2.09262-3.22393c-.22611.07278-.46047.13736-.69479.21823-2.39982.7918-3.66024,1.99567-3.46633,2.65022.08087.26662.404.3393.67865.37161A6.17882,6.17882,0,0,0,469.81022,539.59038Zm3.47433-3.57133c-.17772.21813-.37168.45244-.58177.71907a21.8531,21.8531,0,0,0-1.86651,2.69068,19.90291,19.90291,0,0,0,3.44206-1.11507c1.85837-.76757,2.97344-1.95527,3.0138-2.537A16.14512,16.14512,0,0,0,473.28455,536.01905Zm1.02616-1.17156c-.18587.20194-.37982.41209-.58991.66253a14.80693,14.80693,0,0,1,3.531.0485c-.20194-.4929-1.18774-.78375-2.09273-.78375A6.6214,6.6214,0,0,0,474.31071,534.84749Z" transform="translate(-378.1709 -375.40332)"/>
      <path class="cls-1" d="M482.77885,535.13829a1.06144,1.06144,0,0,1,.315.51713c0,.01619-.008.02428-.01618.04041l-.20194.22627a5.81576,5.81576,0,0,0-1.13116,1.64828c0,.02422,0,.04041.04025.04041a15.19992,15.19992,0,0,0,2.60182-2.15731c.0566-.05665.14545.008.105.06463a13.52474,13.52474,0,0,1-2.78751,2.67444.10851.10851,0,0,1-.04041.00809.93407.93407,0,0,1-.53332-.22627c-.202-.16968-.39589-.42012-.37982-.5898a.29021.29021,0,0,1,.01619-.08077,8.88234,8.88234,0,0,1,.95343-1.34129c-.26657.28276-.7271.75144-1.04229,1.01812a5.15426,5.15426,0,0,1-1.79368,1.21192c-.23436,0-.92111-.47672-.92111-.90493a4.50566,4.50566,0,0,1,1.69678-2.27854,4.41809,4.41809,0,0,1,2.2542-1.17156c.75964,0,1.36563.37971,1.36563.90493C483.27979,534.86363,482.98883,535.04145,482.77885,535.13829Zm-.52528-.21812a.58112.58112,0,0,1,.37162.08891.87882.87882,0,0,0,.12927-.44445c.01619-.19391-.07267-.33127-.24235-.33127a4.55478,4.55478,0,0,0-2.04423,1.24434,6.42037,6.42037,0,0,0-1.68059,2.08464c0,.02422.00815.05654.06463.05654.3071,0,3.36939-2.01191,3.434-2.64212A.07039.07039,0,0,0,482.25357,534.92017Z" transform="translate(-378.1709 -375.40332)"/>
      <path class="cls-1" d="M484.03937,537.55425c-.15354.28276-.2021.46857-.17771.509.05648.04845-.01619.08082-.105.06464s-.711-.50095-.63026-.74335a2.71507,2.71507,0,0,1,.307-.56568l.42007-.62207c.33137-.48481.89694-1.29278,1.09888-1.59982.202-.31514.31519-.62223.16968-.69485a.51132.51132,0,0,1,.3959.0969c.3878.2505.50105.53331.49285.64645a6.45551,6.45551,0,0,1-.75948,1.09889c.2021-.22628.42023-.4444.65443-.66264a7.45688,7.45688,0,0,1,1.79384-1.30892c.16968-.03226.44429.3959.42012.7837a1.01977,1.01977,0,0,1-.16153.52522.38843.38843,0,0,0-.07283-.24235.50233.50233,0,0,0-.4525-.14545,2.87407,2.87407,0,0,0-1.58358.75144A7.75868,7.75868,0,0,0,484.03937,537.55425Z" transform="translate(-378.1709 -375.40332)"/>
      <path class="cls-1" d="M493.49316,535.13829a1.06164,1.06164,0,0,1,.315.51713c0,.01619-.008.02428-.01619.04041l-.20194.22627a5.816,5.816,0,0,0-1.13109,1.64828c0,.02422,0,.04041.04024.04041a15.20037,15.20037,0,0,0,2.60177-2.15731c.05659-.05665.14551.008.1051.06463a13.52651,13.52651,0,0,1-2.78758,2.67444.1084.1084,0,0,1-.04035.00809.93393.93393,0,0,1-.53332-.22627c-.20194-.16968-.39589-.42012-.37982-.5898a.28843.28843,0,0,1,.01619-.08077,8.87555,8.87555,0,0,1,.95338-1.34129c-.26658.28276-.72711.75144-1.04224,1.01812a5.15434,5.15434,0,0,1-1.79367,1.21192c-.23437,0-.92117-.47672-.92117-.90493a4.506,4.506,0,0,1,1.69677-2.27854,4.41829,4.41829,0,0,1,2.25427-1.17156c.75958,0,1.36557.37971,1.36557.90493C493.99405,534.86363,493.70308,535.04145,493.49316,535.13829Zm-.52533-.21812a.58133.58133,0,0,1,.37167.08891.87931.87931,0,0,0,.12927-.44445c.01619-.19391-.07267-.33127-.24235-.33127a4.55517,4.55517,0,0,0-2.04428,1.24434,6.42037,6.42037,0,0,0-1.68059,2.08464c0,.02422.0082.05654.06463.05654.30715,0,3.36939-2.01191,3.43408-2.64212A.07032.07032,0,0,0,492.96783,534.92017Z" transform="translate(-378.1709 -375.40332)"/>
      <path class="cls-1" d="M498.09065,536.20492a5.33885,5.33885,0,0,0-.82422,1.35742c0,.02422.00815.04036.04041.04036a15.36871,15.36871,0,0,0,2.57754-2.14922c.05659-.05665.14545.008.105.06463-.17771.22628-.606.72716-1.09079,1.22816-.52522.53326-1.4786,1.45437-1.73714,1.45437-.37982,0-.905-.53331-.8807-.84029a.28464.28464,0,0,1,.01613-.08082,10.39263,10.39263,0,0,1,1.05027-1.6321c.37988-.52521.99385-1.26861.99385-1.29284a.01575.01575,0,0,0-.016-.01618,7.76864,7.76864,0,0,0-1.74528,1.35742c-.77566.73531-2.125,2.08469-2.05237,2.33513.00814.01614.01618.03232.03237.03232.07267.02423-.01619.08082-.105.06464-.18592-.03232-.66264-.54945-.614-.74335a25.12907,25.12907,0,0,1,1.84218-2.78757c.20194-.31514.31513-.62223.16968-.69485a.59363.59363,0,0,1,.42827.12927.915.915,0,0,1,.44429.61408,22.78111,22.78111,0,0,1-1.5271,2.13309c.35554-.42822.81607-.89684,1.22826-1.30089.33925-.33126,1.632-1.616,1.98763-1.616a.87016.87016,0,0,1,.47667.23437c.33126.26657.412.509.404.606a.11507.11507,0,0,1-.01619.04845C498.8825,535.21917,498.59963,535.50193,498.09065,536.20492Z" transform="translate(-378.1709 -375.40332)"/>
      <path class="cls-1" d="M502.48625,537.56234c0,.02422.008.04036.04041.04036a15.46706,15.46706,0,0,0,2.57743-2.14922c.0566-.05665.15344,0,.11308.05654-.17777.23437-.56557.67871-1.09872,1.23625a6.89468,6.89468,0,0,1-1.73724,1.45437,1.13791,1.13791,0,0,1-.46868-.1939c-.24235-.16973-.404-.37173-.3959-.52522a.38225.38225,0,0,1,.03226-.12927,7.43953,7.43953,0,0,1,.6546-1.14733l-.41208.38786a6.99835,6.99835,0,0,1-2.16546,1.59977c-.22633,0-.897-.4929-.92916-.87267a1.23186,1.23186,0,0,1,.17767-.59784c.54955-1.04234,2.327-2.7068,3.45015-2.86035a.8787.8787,0,0,1,.097-.00809c.75947,0,1.0342.299,1.07466.509.70283-.9857,1.47854-2.04417,1.76945-2.59356.17772-.33132.25039-.598.10505-.67062a.58217.58217,0,0,1,.37965.09684,1.23126,1.23126,0,0,1,.54141.74345.11614.11614,0,0,1-.01608.04845l-2.08469,2.90875A17.67446,17.67446,0,0,0,502.48625,537.56234Zm-2.95736-.01618a.05054.05054,0,0,0,.05665.05654,8.8604,8.8604,0,0,0,3.07843-2.21386,4.05863,4.05863,0,0,0,.56557-.96961.1863.1863,0,0,0-.19395-.16159c-.88071,0-2.5613,1.818-3.08647,2.53708C499.60976,537.26334,499.52091,537.4573,499.52889,537.54616Z" transform="translate(-378.1709 -375.40332)"/>
      <path class="cls-1" d="M514.00854,534.1445c.96951-.87261,2.00377-2.13308,2.00377-2.81179,0-.23426-.24241-.33936-.46054-.35555-1.34938-.09695-3.51473.92118-5.1145,2.45632-1.713,1.68064-2.90077,3.644-2.69068,5.0257.08886.61408.61408.98575,1.40587.98575,1.72106,0,4.71867-1.75327,7.4982-4.36318.12123-.11308.11308.0485.06458.09695-1.54312,1.66452-4.82371,4.92876-6.75469,4.92876-1.09085,0-3.07843-.63027-3.20775-2.23-.097-1.29279.87256-3.03807,2.3108-4.452,1.64828-1.608,3.951-2.90875,5.6236-2.90875,1.51091,0,1.96346.92915,2.00387,1.325.06464.58176-1.04224,1.79378-2.634,2.44017C513.96819,534.33841,513.855,534.28186,514.00854,534.1445Z" transform="translate(-378.1709 -375.40332)"/>
      <path class="cls-1" d="M517.83069,534.33042a1.893,1.893,0,0,1,1.09085-.4929,1.24036,1.24036,0,0,1,1.24434,1.07461,7.90077,7.90077,0,0,0,1.26036-.01619c.09706-.01618.20211.05654-.04839.13742a5.4255,5.4255,0,0,1-1.25238.15344c-.05659.87266-1.92311,3.00575-3.32083,3.00575-.808,0-1.5271-.38786-1.5271-1.07466C515.27754,536.14028,516.78031,534.62931,517.83069,534.33042Zm-1.57555,3.4985c.711,0,2.432-1.519,3.02183-2.6582a2.68125,2.68125,0,0,1-.913-.22633,4.0915,4.0915,0,0,0-2.3108,2.61795C516.0532,537.71583,516.06124,537.82892,516.25514,537.82892Zm2.86834-3.72483a.53693.53693,0,0,0-.44429.37977c-.03237.20194.27461.31513.74324.37977a.882.882,0,0,0,.07267-.36358C519.4951,534.20914,519.382,534.05565,519.12348,534.10409Z" transform="translate(-378.1709 -375.40332)"/>
      <path class="cls-1" d="M520.96588,534.75858c-.12927-.04035-.22617-.105-.22617-.194a1.44239,1.44239,0,0,1,.41208-.62207,3.70182,3.70182,0,0,0,.51708.22617,26.57644,26.57644,0,0,0,1.5756-2.38353c.17772-.33132.25039-.59789.105-.67067a.49828.49828,0,0,1,.37966.08885,1.04586,1.04586,0,0,1,.51713.74335.11463.11463,0,0,1-.01608.04856l-1.60792,2.327a4.30185,4.30185,0,0,0,.46048.02417,5.476,5.476,0,0,0,1.16352-.11314c.04845-.01613.05659.0485.01618.07278a5.32822,5.32822,0,0,1-1.97959.49285l-.54934.75953a5.10393,5.10393,0,0,1,.21813,1.414c.03226,2.98153-1.96341,4.856-2.59373,4.856-.4929,0-1.19578-.48481-1.20376-.96152-.00821-.905.95332-2.72289,1.92294-4.36318.25854-.43625.67062-1.06652,1.04224-1.57555A.78466.78466,0,0,0,520.96588,534.75858Zm.6302.9939a22.75771,22.75771,0,0,0-2.73907,5.55891c0,.11308.06464.105.09706.105a4.27429,4.27429,0,0,0,1.6724-1.69673A5.75119,5.75119,0,0,0,521.59608,535.75248Z" transform="translate(-378.1709 -375.40332)"/>
      <path class="cls-1" d="M523.81015,534.75858c-.12932-.04035-.22632-.105-.22632-.194a1.44318,1.44318,0,0,1,.41219-.62207,3.7111,3.7111,0,0,0,.51712.22617,26.55843,26.55843,0,0,0,1.57555-2.38353c.17777-.33132.25045-.59789.1051-.67067a.49829.49829,0,0,1,.37966.08885,1.04572,1.04572,0,0,1,.51707.74335.11322.11322,0,0,1-.01619.04856l-1.60781,2.327a4.3021,4.3021,0,0,0,.46053.02417,5.47507,5.47507,0,0,0,1.16347-.11314c.04861-.01613.05665.0485.01619.07278a5.32855,5.32855,0,0,1-1.97954.49285l-.54939.75953a5.10205,5.10205,0,0,1,.21812,1.414c.03227,2.98153-1.96335,4.856-2.59372,4.856-.49274,0-1.19573-.48481-1.20388-.96152-.00809-.905.95349-2.72289,1.92311-4.36318.25853-.43625.67062-1.06652,1.04223-1.57555A.78543.78543,0,0,0,523.81015,534.75858Zm.63016.9939a22.75732,22.75732,0,0,0-2.73907,5.55891c0,.11308.06468.105.09706.105a4.27466,4.27466,0,0,0,1.6725-1.69673A5.75056,5.75056,0,0,0,524.44031,535.75248Z" transform="translate(-378.1709 -375.40332)"/>
      <path class="cls-1" d="M529.07028,533.8536a1.20174,1.20174,0,0,1,1.08264.94539c0,.404-2.00381,1.73719-3.48236,1.74528a2.27019,2.27019,0,0,0-.43641.97766c-.008.12118.08087.16973.21014.16973a1.34129,1.34129,0,0,0,.54949-.12932,15.10276,15.10276,0,0,0,3.43392-2.10886c.03237-.02423.14545.04041.11308.07267-1.10692,1.17971-3.14311,2.69062-3.951,2.69062-.38786,0-1.19578-.65443-1.20393-1.05033a1.89616,1.89616,0,0,1,.38786-1.01,6.746,6.746,0,0,1,1.78569-1.69672A3.15359,3.15359,0,0,1,529.07028,533.8536Zm-2.23,2.48059a5.72736,5.72736,0,0,0,1.96341-1.05044c.5413-.404.84828-.92916.79169-.96957C528.94905,534.31418,527.6562,535.38884,526.84029,536.33419Z" transform="translate(-378.1709 -375.40332)"/>
      <path class="cls-1" d="M533.10224,533.8536a1.20174,1.20174,0,0,1,1.08265.94539c0,.404-2.00376,1.73719-3.48231,1.74528a2.27032,2.27032,0,0,0-.4363.97766c-.00815.12118.08071.16973.21.16973a1.34083,1.34083,0,0,0,.54949-.12932,15.09825,15.09825,0,0,0,3.43392-2.10886c.03237-.02423.14545.04041.11308.07267-1.10693,1.17971-3.143,2.69062-3.951,2.69062-.38786,0-1.19584-.65443-1.20388-1.05033a1.896,1.896,0,0,1,.38781-1.01,6.746,6.746,0,0,1,1.78569-1.69672A3.15382,3.15382,0,0,1,533.10224,533.8536Zm-2.23,2.48059a5.72691,5.72691,0,0,0,1.96341-1.05044c.5413-.404.84833-.92916.79185-.96957C532.98112,534.31418,531.68833,535.38884,530.87226,536.33419Z" transform="translate(-378.1709 -375.40332)"/>
    </g>
  </g>
  <text class="cls-2" transform="translate(79.06962 104.18018)">HUNGRYBUZZ</text>
  <text class="cls-3" transform="matrix(0.99975, 0.02255, -0.02255, 0.99975, 120.0618, 19.40503)">H</text>
  <text class="cls-3" transform="matrix(0.98228, 0.18741, -0.18741, 0.98228, 137.75174, 20.00904)">U</text>
  <text class="cls-3" transform="translate(154.95926 23.49) rotate(20.44103)">N</text>
  <text class="cls-3" transform="translate(171.61161 29.93384) rotate(30.07305)">G</text>
  <text class="cls-3" transform="translate(186.67508 38.99195) rotate(38.88993)">R</text>
  <text class="cls-3" transform="translate(198.15946 48.46168) rotate(46.92097)">Y</text>
  <text class="cls-3" transform="matrix(0.57326, 0.81937, -0.81937, 0.57326, 208.29618, 59.54712)">B</text>
  <text class="cls-3" transform="translate(216.91239 72.03394) rotate(63.90205)">U</text>
  <text class="cls-3" transform="translate(224.4036 87.96607) rotate(72.90002)">Z</text>
  <text class="cls-3" transform="matrix(0.15104, 0.98853, -0.98853, 0.15104, 228.7659, 102.78101)">Z</text>
  <text class="cls-3" transform="matrix(0.04233, 0.9991, -0.9991, 0.04233, 230.75907, 118.23853)"> </text>
  <text class="cls-3" transform="matrix(-0.02987, 0.99955, -0.99955, -0.02987, 230.98465, 126.00709)"> </text>
  <text class="cls-3" transform="matrix(-0.13702, 0.99057, -0.99057, -0.13702, 230.81766, 133.65992)">R</text>
  <text class="cls-3" transform="translate(228.53641 148.59839) rotate(105.81057)">E</text>
  <text class="cls-3" transform="translate(224.53543 162.09449) rotate(113.49596)">S</text>
  <text class="cls-3" transform="translate(218.76297 174.94507) rotate(121.17616)">T</text>
  <text class="cls-3" transform="translate(212.33231 185.63257) rotate(128.63368)">A</text>
  <text class="cls-3" transform="matrix(-0.73775, 0.67507, -0.67507, -0.73775, 202.16239, 198.17554)">U</text>
  <text class="cls-3" transform="translate(188.9534 209.86695) rotate(146.36537)">R</text>
  <text class="cls-3" transform="matrix(-0.90682, 0.42152, -0.42152, -0.90682, 176.23368, 218.16871)">A</text>
  <text class="cls-3" transform="translate(160.96219 225.09351) rotate(164.50105)">N</text>
  <text class="cls-3" transform="translate(143.64432 229.54664) rotate(173.20645)">T</text>
  <text class="cls-3" transform="matrix(-0.99987, 0.01622, -0.01622, -0.99987, 129.42655, 230.9275)"> </text>
  <text class="cls-3" transform="matrix(-0.9984, -0.05655, 0.05655, -0.9984, 121.64237, 230.94898)"> </text>
  <text class="cls-3" transform="translate(114.02176 230.62964) rotate(-170.16515)">&amp;</text>
  <text class="cls-3" transform="translate(97.58133 227.35523) rotate(-163.522)"> </text>
  <text class="cls-3" transform="translate(90.16922 225.05445) rotate(-159.28292)"> </text>
  <text class="cls-3" transform="translate(82.99784 222.44019) rotate(-152.79156)">C</text>
  <text class="cls-3" transform="translate(68.72196 214.90406) rotate(-143.85202)">A</text>
  <text class="cls-3" transform="translate(55.31375 204.75171) rotate(-135.57656)">F</text>
  <text class="cls-3" transform="matrix(-0.61582, -0.78788, 0.78788, -0.61582, 45.44266, 194.84058)">E</text>
  <text class="cls-3" transform="translate(36.95389 183.48316) rotate(-122.1137)"> </text>
  <text class="cls-3" transform="translate(32.91678 176.85718) rotate(-117.90378)"> </text>
  <text class="cls-3" transform="translate(29.28446 170.13648) rotate(-111.65236)">B</text>
  <text class="cls-3" transform="translate(23.80643 155.98609) rotate(-102.93119)">A</text>
  <text class="cls-3" transform="translate(20.29569 139.53882) rotate(-94.28369)">R</text>
  <text class="cls-3" transform="translate(19.50321 124.33179) rotate(-88.18601)"> </text>
  <text class="cls-3" transform="translate(19.85331 116.5442) rotate(-83.99804)"> </text>
  <text class="cls-3" transform="translate(20.50028 108.97681) rotate(-77.12451)">U</text>
  <text class="cls-3" transform="translate(24.74393 91.86353) rotate(-68.45812)">T</text>
  <text class="cls-3" transform="translate(29.27909 80.28443) rotate(-60.96727)">A</text>
  <text class="cls-3" transform="translate(37.57059 65.68873) rotate(-51.64535)">H</text>
  <text class="cls-3" transform="translate(49.01444 51.97681) rotate(-44.78686)"> </text>
  <text class="cls-3" transform="matrix(0.75926, -0.65078, 0.65078, 0.75926, 54.60086, 46.5774)"> </text>
  <text class="cls-3" transform="translate(60.28348 41.51539) rotate(-33.76279)">U</text>
  <text class="cls-3" transform="translate(75.10526 31.99244) rotate(-25.18171)">S</text>
  <text class="cls-3" transform="translate(87.85624 26.09058) rotate(-16.76696)">A</text>
</svg>
