<svg id="Capa_1" data-name="Capa 1" xmlns="http://www.w3.org/2000/svg" viewBox="0 0 768.4918 357.56478">
  <defs>
    <style>
      .cls-1, .cls-2 {
        fill: #c8693a;
      }

      .cls-2 {
        font-size: 68px;
        font-family: RussoOne-Regular, Russo One;
      }
    </style>
  </defs>
  <title>hungrybuzz_logo_header</title>
  <g>
    <g>
      <path class="cls-1" d="M449.92084,545.25425c-13.75107,16.44489-22.72564,35.03776-19.21364,42.64649,2.54391,5.30039,13.70094,3.69272,18.36437,2.42638,2.69668-.73906,2.84606.438,1.15508,1.2491-6.31575,3.02992-12.38132,4.55218-17.30277,4.41664-5.1988-.1418-10.97527-2.64157-13.194-7.26478-7.73513-16.12445,5.5793-40.12844,26.75368-59.02556a150.34139,150.34139,0,0,1,40.02815-25.86028c40.621-17.68353,63.26984,3.21612,66.80247,12.8958,4.60807,12.49283-5.74748,33.41286-24.085,53.30732-13.21336,14.38386-28.77945,25.59651-39.98428,33.46822a238.58161,238.58161,0,0,0,58.555,11.02724c8.722.25437,25.5085-.03081,32.38678-3.33024,10.149-4.869,10.26389-11.859,10.59268-14.92992.07286-1.006.52048-.943.83987.01332.80148,2.25036,1.45933,6.51292,1.07883,12.65971-.4343,6.03449-2.01428,10.2597-2.92858,11.53179a13.88672,13.88672,0,0,1-4.7013,3.50312c-21.53765,10.33178-76.96738-3.72014-99.70033-12.65084-3.29577,16.84-4.92746,31.07736-4.87575,41.59587-.07652,4.753-.02873,12.08178,1.32353,11.43228,2.481-1.18955,13.703-27.24125,16.97972-36.02674.415-1.4468,1.312-1.60088,1.182-.4283-.9869,12.40326-6.86862,36.86349-12.05619,39.352a22.16827,22.16827,0,0,1-9.30727,1.41441c-5.02879-.36248-9.30963-2.05424-11.20326-6.00132-3.196-6.37321-.14128-28.92257,3.57129-50.67829l-1.6202-.1943c-6.637-1.11486-7.469-15.2817-1.89912-17.26046.84353-.26586,3.27827,1.34076,6.38653,2.90168,1.165-6.24629,3.927-17.83657,5.503-25.25022,5.964-26.02585,12.01388-40.30367,8.768-47.06913a3.16259,3.16259,0,0,0-2.20335-1.99391c-.05537-.11282.00365-.27918.34237-.44188,2.93224-1.40683,16.68671,2.3987,18.63414,6.45835.64818,1.35225-1.11722,10.10614-5.09382,24.08155-3.4488,12.474-7.13656,25.89579-10.09753,39.38467,10.33074-9.11742,19.05878-19.54739,29.03357-30.852,16.073-18.25233,25.53539-39.29849,19.63827-51.58945-3.62273-7.55571-15.1318-11.883-38.45-2.08323A134.90527,134.90527,0,0,0,449.92084,545.25425Z" transform="translate(-417.5082 -395.30029)"/>
      <path class="cls-1" d="M595.90371,523.63329c7.38126-1.91948,18.29333,3.77,19.89838,9.94162,1.57215,6.05016-23.2456,33.82235-45.35883,39.702-2.93041,7.61-3.14482,13.73749-2.72593,16.34172.35021,1.84688,1.87065,2.22634,3.80632,1.72336a20.71107,20.71107,0,0,0,7.72573-4.0761A233.68637,233.68637,0,0,0,622.466,542.30661c.38833-.48862,2.3355.03812,1.97589.64844-11.98332,21.97926-36.59267,52.53849-48.69456,55.68592-5.80728,1.511-20.45908-5.14422-22.12133-11.04239-1.25458-4.32471-.34028-10.24743,1.87457-16.63709,3.77968-10.80134,12.18049-23.70941,20.13551-32.36745C582.69035,530.94587,589.73316,525.23835,595.90371,523.63329Zm-23.73735,45.83649c9.17748-4.454,18.56911-15.03543,25.31524-23.37879,6.53408-8.15872,9.08556-17.22051,8.08142-17.606C595.88255,531.00307,580.70688,552.13332,572.16636,569.46978Z" transform="translate(-417.5082 -395.30029)"/>
      <path class="cls-1" d="M643.56357,546.54723a207.8422,207.8422,0,0,1,40.60975-16.73372c.96783-.28309.9412,1.11408.36326,1.46142-6.42674,3.32528-18.16328,7.5121-33.47684,16.968,6.08046,1.5463,11.82272,4.92067,12.404,8.50031.48026,2.96175.264,5.53151-4.54827,11.00008-8.21721,8.6839-23.611,17.64619-34.96724,19.491-8.02214,1.30342-17.11892-6.34082-16.7097-10.84155.60249-6.43171,16.11479-19.34082,32.26613-27.53976-7.43663-1.32562-15.69406-3.02417-16.618-8.70192-1.66408-10.24456,21.22766-27.646,35.29812-29.93272,7.40608-1.20313,15.17385,4.50256,15.89672,8.9461.943,5.80128-10.35163,12.70437-13.93049,13.286-.7422.1204-1.54185-.13-1.23186-.56069,1.86125-2.582,9.60786-11.82272,9.2271-14.16762-.08017-.49437-.34812-.57767-1.335-.4168-5.3077.86259-14.12766,5.84228-20.585,11.32626-8.14644,6.77094-12.081,13.74506-10.3404,15.10855C637.485,545.00067,641.5916,546.10718,643.56357,546.54723Zm6.884,5.72293c-.17994-1.11147-.48758-1.44131-2.82883-1.821-4.02046,2.55357-8.01847,5.2304-12.30872,8.46114-13.6722,10.20251-21.8761,20.53064-21.63506,22.01191,2.68937.95634,22.27594-12.61454,27.96831-17.34012C643.6649,561.98693,651.05034,555.97228,650.4476,552.27016Z" transform="translate(-417.5082 -395.30029)"/>
      <path class="cls-1" d="M681.47638,565.90711c.03447.374.1815.6111.679.5641,2.61467-.24262,22.073-19.25464,37.13979-36.85461.79-.95269,1.86881-.17315,1.32561.7563-2.40262,3.86482-7.7427,11.26828-15.16235,20.62231-7.41965,9.35428-20.9524,24.55111-24.68795,24.89844-1.74242.16166-5.26592-1.26921-7.39668-2.57864-3.60549-2.30181-6.486-4.92223-6.5816-7.29978a5.89383,5.89383,0,0,1,.31364-2.038c1.8764-6.83049,11.18184-24.27193,20.51419-40.08273l17.55531-30.01289c-7.6701,2.59666-12.29514,5.53725-13.42385,6.89813-1.34468,1.75809,2.48671,3.78726,4.7073,4.71122.52048.20266.18177.6111-.19116.64662-5.899.04492-10.42058-2.674-10.91024-3.88493-2.523-5.54222,3.51957-12.1314,5.4435-13.064,3.946-2.12423,10.91624-4.1534,20.29821-5.90392,2.24384-4.227,4.03588-7.9101,5.28863-10.66345,2.26473-5.3594,3.00328-9.57234.65811-10.48455a8.92755,8.92755,0,0,1,6.26248,1.17623c5.43984,3.137,8.51729,7.8738,8.76016,10.48848a1.78325,1.78325,0,0,1-.17967.77093l-3.68985,6.24524c15.9372-1.48048,42.92984-.22094,49.04685,2.09916.38625.08984.03447.37371-.08984.38546-8.02605.11752-22.09626,1.42408-35.9941,3.21821-2.72776.37867-10.04974,1.30994-17.94939,2.79722l-19.28232,33.06108C703.276,523.444,680.99037,560.67776,681.47638,565.90711Z" transform="translate(-417.5082 -395.30029)"/>
      <path class="cls-1" d="M775.71179,523.15434c2.78129,2.46738,5.08389,6.81612,4.97316,7.94353.00392.24966-.12039.37684-.24078.62859l-3.08554,3.53838c-10.72665,12.51242-17.0962,23.4715-17.19387,25.72369.00418.37476.00783.62442.63147.61659,2.75256-.03343,23.548-17.67074,39.85788-33.87745.86442-.88557,2.25324.09767,1.63926.98011-5.77647,8.32534-34.78731,39.56931-42.63708,41.916a1.6827,1.6827,0,0,1-.62364.13319,14.45917,14.45917,0,0,1-8.29556-3.401c-3.15788-2.58778-6.20685-6.42779-5.98905-9.05683a4.46768,4.46768,0,0,1,.23556-1.25276c.725-2.13572,5.14709-8.69278,14.50242-20.938-4.07427,4.42709-11.11316,11.7663-15.939,15.95235-12.62419,10.90945-22.90531,19.03945-27.53218,19.09585-3.62639.04414-14.34573-7.2042-14.4259-13.832-.09741-8.00307,11.71929-23.52973,25.82972-35.58279,12.0063-10.27641,25.66336-18.44767,34.66666-18.55657,11.754-.14364,21.20494,5.61952,21.30444,13.7469C783.41271,518.80847,778.94436,521.61353,775.71179,523.15434Zm-8.16943-3.27775a9.00322,9.00322,0,0,1,5.7689,1.30577c.98716-1.013,1.70247-4.02282,1.91661-6.9023.21415-3.00406-1.188-5.11262-3.81415-5.08128-8.12712.0995-23.24352,11.78928-31.40145,19.643-13.96888,13.42777-25.66911,28.32793-25.6174,32.579.00548.37476.1358.87409,1.01171.86364,4.75144-.0585,51.76468-31.77281,52.6466-41.53815A1.09092,1.09092,0,0,0,767.54236,519.87659Z" transform="translate(-417.5082 -395.30029)"/>
      <path class="cls-1" d="M864.0177,528.99113c-12.37558,12.50929-28.45014,32.20189-28.82516,34.80429-.0363.37293.065.63408.56253.68187,2.61467.24967,24.78327-14.84087,42.87238-29.31665.95426-.78816,2.36606.22564,1.66016,1.03783-3.08345,3.348-9.71285,9.62379-18.74879,17.42787-9.03593,7.803-25.16978,20.20524-28.90376,19.8485-4.73-.45232-12.40979-9.47676-11.95826-14.20679.38051-3.98339,11.03064-15.52692,18.07553-23.52112-15.9257,14.17911-35.73582,30.87731-43.31243,33.92159a1.66461,1.66461,0,0,1-.63512.065c-4.97891-.47531-13.98011-10.12913-13.40818-16.1033.43978-4.606,17.07322-22.236,31.9201-38.27711,2.24148-2.42351,4.67831-5.58243,5.367-7.52673.53954-1.70716-.50873-2.56114-1.72911-2.92832.26011-.10159,3.07013-.58629,5.93134,2.32479,6.30061,6.38105,6.89186,10.70759,6.60093,12.43878a1.78336,1.78336,0,0,1-.32122.72288s-9.78962,9.11428-15.07826,14.51208c-10.86245,11.14658-18.89242,21.55958-19.13137,24.0489-.046.49829.13,1.26817.878,1.34,4.231.40453,47.63322-30.495,57.392-40.61628,2.23026-2.29894,5.20063-5.784,5.262-9.04455a2.00488,2.00488,0,0,0-.92971-2.09811,9.37841,9.37841,0,0,1,5.90862,2.57446c5.321,4.77886,6.97386,9.83637,6.68319,11.5673a1.78,1.78,0,0,1-.32148.72314S867.22546,525.65515,864.0177,528.99113Z" transform="translate(-417.5082 -395.30029)"/>
      <path class="cls-1" d="M868.45523,566.74777c-3.16362,3.84654-4.4451,6.52807-4.19466,7.21282.71739.90307-.48209,1.18041-1.78629.6743-1.30264-.50586-9.33444-9.69744-7.39484-13.14337a41.97911,41.97911,0,0,1,6.32358-7.69413l8.20939-8.22087c6.45573-6.39541,17.41951-17.01289,21.39036-21.08612,3.99383-4.1957,6.61242-8.53008,4.61564-10.06123.26977-.07547,2.81916-.09271,5.73233,2.63479,5.15884,4.94365,6.04807,9.57235,5.59288,11.26724-.28492,1.47369-6.89134,7.32955-14.76461,14.46977,3.734-2.845,7.68942-5.52,11.88983-8.14827,8.20572-4.91,25.08752-14.51391,31.09354-14.62777,2.67422.00679,5.59314,7.32015,4.08576,13.14154-.43038,1.57241-1.96806,6.24237-3.99592,7.50662a6.003,6.003,0,0,0-.39382-3.89616c-.721-1.54081-3.0623-3.266-6.4479-3.5376-7.65469-.58629-15.83561.89132-26.26794,6.773C887.0186,548.42649,875.28964,558.38822,868.45523,566.74777Z" transform="translate(-417.5082 -395.30029)"/>
      <path class="cls-1" d="M988.20881,557.03779c1.9012,3.19523,2.77372,8.03833,2.32584,9.078-.07443.239-.22929.322-.42255.52465l-4.01289,2.43422c-14.02268,8.65805-23.41979,17.16123-24.19829,19.27658-.10916.35883-.18177.59778.41706.78033,2.62982.80462,27.79987-9.67655,48.26235-20.15745,1.09214-.58029,2.11561.77772,1.26242,1.43191-8.03363,6.17421-45.16193,27.12086-53.35433,26.96966a1.653,1.653,0,0,1-.633-.0632,14.45445,14.45445,0,0,1-6.86862-5.76028c-2.22268-3.42478-3.95936-8.00856-2.95157-10.44748a4.41526,4.41526,0,0,1,.60458-1.12244c1.33893-1.81345,7.544-6.71506,20.17756-15.53659-5.2257,2.979-14.16188,7.831-20.03236,10.3519-15.3402,6.555-27.603,11.17426-32.02691,9.82175-3.46787-1.05951-11.47642-11.22206-9.53892-17.55871,2.33942-7.65286,18.31448-18.8522,35.41826-26.04517,14.55987-6.14078,30.05337-9.77318,38.66258-7.14126,11.23929,3.43626,18.4905,11.7979,16.11478,19.57037C996.86607,555.23792,991.75711,556.55283,988.20881,557.03779Zm-6.78452-5.60437a8.98858,8.98858,0,0,1,5.09747,2.99623c1.2491-.66464,2.84423-3.31483,3.92488-5.99167,1.11539-2.79722.421-5.23222-2.08871-5.99923-7.77326-2.37572-25.72447,4.16567-35.88311,9.16677-17.38687,8.54523-33.058,19.18283-34.30131,23.24848-.10916.35856-.1358.8733.6999,1.12949,4.54486,1.38856,58.96444-14.53323,62.77286-23.56708A1.08577,1.08577,0,0,0,981.42429,551.43342Z" transform="translate(-417.5082 -395.30029)"/>
      <path class="cls-1" d="M1049.31159,600.0183c-10.44356,5.71509-19.27083,11.22571-20.50453,13.54711a.53456.53456,0,0,0,.29824.83178c2.48671,1.17545,28.06573-5.54875,50.27271-13.03735,1.165-.41784,1.98164,1.07492,1.04253,1.59905-3.98234,1.99026-13.286,6.16951-23.3814,9.97505-10.87394,3.991-30.30355,10.57753-33.92054,8.86854-5.31579-2.51048-9.13935-13.4437-6.76938-17.58012a4.41031,4.41031,0,0,1,.75944-1.02321c1.85916-1.88788,9.79328-7.26661,25.48526-15.89593,8.78549-4.83841,22.29317-11.18106,22.45195-11.52056a.245.245,0,0,0-.11856-.333c-.79182-.37371-13.40453.85894-33.39275,7.45882-15.71522,5.16067-43.51509,15.12319-44.15387,19.10866.00757.28.01332.55939.23922.66647.85685.8195-.75944,1.02346-1.89755.21022-2.38721-1.68131-5.63884-12.06845-3.67836-14.46115,4.5198-5.47066,28.81-17.3678,44.20375-26.82916,4.90814-3.074,8.5212-6.62313,6.96629-8.60163-.11282-.0538,2.86721.66254,5.13743,4.63914,2.79461,4.916,3.17537,9.382,2.15974,11.53-1.06759,2.26212-20.44184,11.36491-35.46814,19.75527,7.8059-3.6431,17.34848-7.15589,25.78376-10.08525,6.93939-2.3927,33.521-11.82454,38.496-9.47468,1.469.69415,3.47544,2.88732,5.12045,6.43066,2.873,5.91985,2.40262,9.84578,1.64893,11.14946a1.78951,1.78951,0,0,1-.54712.57193C1066.90686,591.45844,1061.08077,593.54637,1049.31159,600.0183Z" transform="translate(-417.5082 -395.30029)"/>
      <path class="cls-1" d="M1059.365,628.42456a.53577.53577,0,0,0,.19143.86338c2.213,1.41467,29.24588-1.64292,51.94854-6.28128,1.20862-.2669,1.57972,1.00988.58133,1.41049-4.27118,1.57528-13.0316,4.13825-24.63233,6.96629-11.60282,2.827-31.61586,6.51084-34.77765,4.49107-1.47474-.943-3.378-4.23566-4.25577-6.57795-1.43086-4.03092-2.09655-7.8691-.71164-9.80373a5.8861,5.8861,0,0,1,1.49954-1.41624c5.67515-4.2388,23.73135-12.29149,40.80849-19.0405l32.28911-12.90754c-7.64921-2.66143-13.106-3.17982-14.8333-2.8001-2.14042.56253-.36353,4.51692.82237,6.6106.287.48-.23138.59386-.54686.392-4.68432-3.58643-6.58369-8.51-6.22617-9.7656,1.4118-5.92481,10.22758-7.41469,12.31812-6.96995,4.42029.7469,11.16852,3.42556,19.64794,7.8059,4.36859-1.95865,8.04485-3.76427,10.72273-5.16928,5.08049-2.83953,8.2496-5.7104,6.95845-7.87093a8.92884,8.92884,0,0,1,4.22156,4.77416c2.36789,5.81669,1.88789,11.44587.47426,13.65915a1.77841,1.77841,0,0,1-.6158.49828l-6.74614,2.66325c13.48862,8.61888,34.01821,26.18933,37.42288,31.77856.24862.30711-.20083.31573-.30607.24861-6.40768-4.83631-18.31658-12.4453-30.38765-19.56567-2.38721-1.376-8.73953-5.13743-15.88758-8.81474l-35.5235,14.2538C1102.65077,608.29558,1062.19407,623.99931,1059.365,628.42456Z" transform="translate(-417.5082 -395.30029)"/>
    </g>
    <g>
      <path class="cls-1" d="M647.09829,662.59712a19.23452,19.23452,0,1,1-16.876-28.49115,19.50805,19.50805,0,0,1,16.82407,9.79277c-3.2814,1.66642-3.54151,1.82233-7.18774,3.64545a10.9655,10.9655,0,0,0-9.63633-5.46857,11.25053,11.25053,0,0,0,0,22.50105c4.167,0,8.33369-2.084,9.84473-5.62527h-.83335c-1.66668,0-5.46935.052-7.55258.052a6.07866,6.07866,0,0,1-1.4588-.052v-6.87566c5.26069,0,12.60513.05249,19.01176.05249C649.234,653.22194,649.02561,660.09683,647.09829,662.59712Z" transform="translate(-417.5082 -395.30029)"/>
      <path class="cls-1" d="M670.065,672.44106a19.24538,19.24538,0,1,1,19.27188-19.21912A19.20547,19.20547,0,0,1,670.065,672.44106Zm-11.35472-19.21912A11.30311,11.30311,0,1,0,670.065,641.81472,11.44927,11.44927,0,0,0,658.71026,653.22194Z" transform="translate(-417.5082 -395.30029)"/>
      <path class="cls-1" d="M710.58515,672.44106a19.24538,19.24538,0,1,1,19.27109-19.21912A19.20536,19.20536,0,0,1,710.58515,672.44106ZM699.2299,653.22194a11.30311,11.30311,0,1,0,11.35525-11.40722A11.44955,11.44955,0,0,0,699.2299,653.22194Z" transform="translate(-417.5082 -395.30029)"/>
      <path class="cls-1" d="M734.54135,634.78367h16.04244c9.63581,0,16.87553,6.09351,16.87553,18.3863,0,10.78149-5.52106,18.80258-16.87553,18.80258H734.54135Zm8.17726,30.31348h7.292c4.74021,0,9.2715-2.91657,9.2715-11.14607,0-7.50035-2.65673-12.29253-10.72979-12.29253h-5.83366Z" transform="translate(-417.5082 -395.30029)"/>
      <path class="cls-1" d="M796.10245,665.04492v6.92763h-7.91663V634.62724H815.3221v6.87541H796.10245v8.38566H813.0827v7.24H796.10245Z" transform="translate(-417.5082 -395.30029)"/>
      <path class="cls-1" d="M837.56016,672.44106A19.24538,19.24538,0,1,1,856.832,653.22194,19.20563,19.20563,0,0,1,837.56016,672.44106ZM826.2057,653.22194a11.30311,11.30311,0,1,0,11.35446-11.40722A11.44922,11.44922,0,0,0,826.2057,653.22194Z" transform="translate(-417.5082 -395.30029)"/>
      <path class="cls-1" d="M878.07981,672.44106a19.24538,19.24538,0,1,1,19.27188-19.21912A19.20519,19.20519,0,0,1,878.07981,672.44106Zm-11.35446-19.21912a11.30311,11.30311,0,1,0,11.35446-11.40722A11.44956,11.44956,0,0,0,866.72535,653.22194Z" transform="translate(-417.5082 -395.30029)"/>
      <path class="cls-1" d="M902.03653,634.78367h16.04219c9.63606,0,16.876,6.09351,16.876,18.3863,0,10.78149-5.52106,18.80258-16.876,18.80258H902.03653Zm8.17753,30.31348H917.506c4.73943,0,9.27124-2.91657,9.27124-11.14607,0-7.50035-2.65646-12.29253-10.72952-12.29253h-5.83366Z" transform="translate(-417.5082 -395.30029)"/>
    </g>
    <g>
      <path class="cls-1" d="M621.43388,745.55119c-.50872,1.29063-.82159,2.50317-.54737,2.97246l.117.1956c0,.3523-3.5201-.93858-3.5201-3.08971-.274,0-.54737-.03917-.78241-.03917-3.71518-.19561-10.32526-3.05055-11.1855-6.76625-1.48623-6.53147,11.34219-13.024,25.93053-15.64444,1.21227-1.52514,2.42481-3.01163,3.44175-4.22391-.4693-.352-.978-.93859-.978-1.25171,0-.39095.861-.4693,2.58151-.62573,4.81073-5.63179,9.58227-10.91181,9.77788-13.25854.03891-.62546-.07861-.93859-.35178-1.095-.03943-.03917.11726-.11726.23452-.07835a3.8236,3.8236,0,0,1,1.79909,1.0172c1.75992,1.52514,2.42456,2.81577,2.3073,3.48092-.07835.4693-1.91635,2.93329-4.73211,6.29669-1.09555,1.3298-2.07305,2.42482-3.05133,3.5201,6.41473-1.21254,14.54969-6.14078,15.723-10.01265,1.21254-3.98939-3.24641-5.90574-6.68816-6.25778-6.41369-.6649-13.80592.978-19.90752,3.91131-3.24615,1.56431-7.97827,4.6932-7.97827,7.3528,0,.93858.97777,1.76018,3.44176,2.38564.78189.1956.62572.50821.15617.46956a8.92961,8.92961,0,0,1-4.69321-1.29063,4.3276,4.3276,0,0,1-2.1903-3.55927c.11726-4.06748,5.04576-7.82209,11.92927-10.01239,6.60955-2.112,14.66616-2.73768,20.57216-1.095,7.19637,2.03387,9.465,8.76094,8.91685,10.834-1.05585,4.26282-7.74375,6.84433-13.88426,8.21278,3.63735.66516,7.979,2.15113,9.66061,4.92824a45.60612,45.60612,0,0,1,6.45338,1.56432c.43013.15617.50847.46929-.15669.31312a38.9692,38.9692,0,0,0-5.86657-.978,5.1594,5.1594,0,0,1,.46982,1.68183c.23452,5.51479-6.61007,10.87316-16.58355,15.05763A70.46389,70.46389,0,0,1,621.43388,745.55119Zm-2.69876-3.51983a105.23434,105.23434,0,0,1,10.12939-15.60554c-1.0945.3523-2.229.6649-3.36315,1.05637-11.6164,3.8327-17.71749,9.6601-16.7789,12.82842.39147,1.29062,1.95579,1.6424,3.28506,1.79883A29.91093,29.91093,0,0,0,618.73512,742.03136Zm16.81755-17.28711c-.86025,1.05585-1.7991,2.19-2.816,3.48066a105.77927,105.77927,0,0,0-9.03489,13.02429,96.338,96.338,0,0,0,16.66138-5.39754c8.99545-3.71544,14.393-9.46449,14.58833-12.28051A78.14941,78.14941,0,0,0,635.55267,724.74425Zm4.96715-5.671c-.89968.9775-1.83853,1.99469-2.85546,3.207a71.67391,71.67391,0,0,1,17.09176.23478c-.9775-2.38591-5.74931-3.79379-10.12991-3.79379A32.04993,32.04993,0,0,0,640.51982,719.07329Z" transform="translate(-417.5082 -395.30029)"/>
      <path class="cls-1" d="M681.51006,720.48091a5.13744,5.13744,0,0,1,1.52488,2.50316c0,.07835-.03891.11752-.07834.19561l-.9775,1.09528c-3.4031,3.87213-5.43645,7.27471-5.47536,7.97852,0,.11726,0,.1956.19482.1956.86129,0,7.43167-5.43618,12.59416-10.44251.274-.27421.70407.03891.50847.31286-1.83853,2.58125-11.02933,12.24161-13.49306,12.94568a.52484.52484,0,0,1-.1956.03917A4.52124,4.52124,0,0,1,673.531,734.209c-.97776-.82133-1.91635-2.03361-1.83853-2.85494a1.40513,1.40513,0,0,1,.07835-.39094c.23478-.6649,1.64292-2.69877,4.61512-6.49256-1.29037,1.36871-3.51958,3.63736-5.04524,4.92824-3.98913,3.36341-7.23528,5.86631-8.68233,5.86631-1.13446,0-4.45869-2.30756-4.45869-4.38034,0-2.50316,3.75435-7.31362,8.2133-11.02933,3.79353-3.16806,8.09552-5.671,10.91155-5.671,3.67705,0,6.61033,1.838,6.61033,4.38034C683.93488,719.15137,682.52648,720.01214,681.51006,720.48091Zm-2.54259-1.05585a2.813,2.813,0,0,1,1.79883.43038,4.25406,4.25406,0,0,0,.62572-2.15138c.07835-.93859-.35177-1.60349-1.1731-1.60349-2.54208,0-7.31389,3.59844-9.89514,6.02326-4.41925,4.14582-8.135,8.76094-8.135,10.09074,0,.11726.03943.27369.31286.27369,1.48649,0,16.30961-9.73871,16.62247-12.78925A.34079.34079,0,0,0,678.96747,719.42506Z" transform="translate(-417.5082 -395.30029)"/>
      <path class="cls-1" d="M687.61167,732.17539c-.74324,1.36871-.97828,2.26813-.86024,2.464.27343.23452-.07835.39121-.50847.31287-.43038-.07835-3.44175-2.42482-3.0508-3.59819a13.1418,13.1418,0,0,1,1.48623-2.7382l2.03334-3.01111c1.604-2.34673,4.34169-6.25777,5.31919-7.744.978-1.5254,1.52567-3.01189.82133-3.36341a2.47482,2.47482,0,0,1,1.91635.469c1.87718,1.21253,2.42534,2.5815,2.38565,3.12915,0,.46929-1.68157,2.65933-3.67627,5.31918.97828-1.09528,2.03413-2.15112,3.1678-3.20749,2.22974-1.99444,6.84459-5.94492,8.68312-6.33586.82133-.15617,2.1506,1.91635,2.03361,3.79352a4.93632,4.93632,0,0,1-.7819,2.54234,1.88016,1.88016,0,0,0-.35256-1.17311,2.43147,2.43147,0,0,0-2.1903-.70407,13.91219,13.91219,0,0,0-7.6654,3.63736A37.55686,37.55686,0,0,0,687.61167,732.17539Z" transform="translate(-417.5082 -395.30029)"/>
      <path class="cls-1" d="M733.37295,720.48091a5.13853,5.13853,0,0,1,1.52461,2.50316c0,.07835-.03865.11752-.07834.19561l-.9775,1.09528c-3.40284,3.87213-5.43619,7.27471-5.4751,7.97852,0,.11726,0,.1956.19482.1956.861,0,7.43167-5.43618,12.5939-10.44251.274-.27421.70433.03891.50873.31286-1.83879,2.58125-11.02959,12.24161-13.49332,12.94568a.52464.52464,0,0,1-.19534.03917,4.52055,4.52055,0,0,1-2.58151-1.09528c-.9775-.82133-1.91635-2.03361-1.83853-2.85494a1.39584,1.39584,0,0,1,.07835-.39094c.23452-.6649,1.64266-2.69877,4.61486-6.49256-1.29037,1.36871-3.51958,3.63736-5.045,4.92824-3.98913,3.36341-7.23528,5.86631-8.68233,5.86631-1.13446,0-4.45895-2.30756-4.45895-4.38034,0-2.50316,3.75461-7.31362,8.2133-11.02933,3.79353-3.16806,8.09578-5.671,10.91181-5.671,3.67679,0,6.61007,1.838,6.61007,4.38034C735.7975,719.15137,734.3891,720.01214,733.37295,720.48091Zm-2.54286-1.05585a2.814,2.814,0,0,1,1.79909.43038,4.25666,4.25666,0,0,0,.62572-2.15138c.07835-.93859-.35177-1.60349-1.1731-1.60349-2.54208,0-7.31389,3.59844-9.8954,6.02326-4.41925,4.14582-8.135,8.76094-8.135,10.09074,0,.11726.03969.27369.31286.27369,1.48675,0,16.30961-9.73871,16.62273-12.78925A.34047.34047,0,0,0,730.83009,719.42506Z" transform="translate(-417.5082 -395.30029)"/>
      <path class="cls-1" d="M755.6272,725.64393c-2.19,3.01137-3.95022,5.74931-3.98965,6.57064,0,.11726.03943.19534.1956.19534.86077,0,7.19637-5.31919,12.47665-10.40334.274-.27421.70407.03891.50846.31286-.86024,1.09528-2.93328,3.51984-5.28,5.94492-2.54234,2.58125-7.15719,7.03993-8.40865,7.03993-1.83852,0-4.3806-2.58151-4.26308-4.06747a1.37852,1.37852,0,0,1,.07809-.39121c.27343-.78242,1.79909-3.36341,5.08389-7.90018,1.83878-2.54234,4.81072-6.14078,4.81072-6.258a.0762.0762,0,0,0-.07756-.07834c-.27422,0-3.67679,2.03386-8.44808,6.57064-3.75462,3.55927-10.28634,10.091-9.93457,11.30327.03943.07809.07835.15643.15669.15643.35178.11726-.07834.39121-.50846.31287-.89994-.15643-3.2075-2.6596-2.9722-3.59819.54738-2.15112,5.82713-8.76094,8.91711-13.49331.9775-1.5254,1.5254-3.01189.82133-3.36341a2.87333,2.87333,0,0,1,2.073.62573,4.42916,4.42916,0,0,1,2.15061,2.97246c0,.78215-4.26308,5.94491-7.392,10.32525,1.721-2.07278,3.95022-4.34117,5.94543-6.297,1.64214-1.60349,7.89992-7.82235,9.62119-7.82235a4.212,4.212,0,0,1,2.3073,1.13445c1.60348,1.29036,1.99443,2.46373,1.95578,2.93328a.557.557,0,0,1-.07835.23452C759.46016,720.87238,758.09093,722.24109,755.6272,725.64393Z" transform="translate(-417.5082 -395.30029)"/>
      <path class="cls-1" d="M776.90422,732.21457c0,.11726.03891.19534.19561.19534.82159,0,7.27419-5.35836,12.47612-10.40334.274-.27421.74272,0,.54738.27369-.86051,1.13445-2.73768,3.28532-5.31841,5.98409-2.58177,2.69877-7.23606,7.03993-8.40917,7.03993a5.50833,5.50833,0,0,1-2.26864-.93858c-1.17311-.8216-1.95579-1.79936-1.91635-2.54234a1.84928,1.84928,0,0,1,.15617-.62573,36.00393,36.00393,0,0,1,3.16858-5.5537l-1.99469,1.87744c-4.34169,4.0283-8.95629,7.74374-10.482,7.74374-1.09554,0-4.34169-2.3859-4.4976-4.22417a5.96272,5.96272,0,0,1,.86-2.89385c2.66012-5.0455,11.26411-13.10237,16.70055-13.84561a4.25108,4.25108,0,0,1,.46956-.03918c3.67627,0,5.00606,1.44732,5.20193,2.464,3.40206-4.77128,7.15693-9.89487,8.56508-12.5542.86024-1.60375,1.212-2.89437.50846-3.24615a2.81827,2.81827,0,0,1,1.83774.46877,5.95978,5.95978,0,0,1,2.62069,3.59871.56212.56212,0,0,1-.07783.23451l-10.091,14.07987C784.92192,719.62067,776.90422,730.57165,776.90422,732.21457Zm-14.31517-.07835a.24461.24461,0,0,0,.27421.27369c1.3298,0,10.71647-5.55344,14.9012-10.7162.78268-1.13419,2.73768-3.91131,2.73768-4.69347a.90181.90181,0,0,0-.93885-.78215c-4.26308,0-12.398,8.80011-14.94011,12.28078C762.98052,730.76725,762.5504,731.7061,762.58905,732.13622Z" transform="translate(-417.5082 -395.30029)"/>
      <path class="cls-1" d="M832.67815,715.67045c4.69294-4.22391,9.69927-10.32526,9.69927-13.61058,0-1.13393-1.17337-1.64266-2.22922-1.721-6.53173-.4693-17.01315,4.45894-24.7569,11.88983-8.2919,8.13521-14.04121,17.63887-13.02428,24.327.43012,2.97246,2.97246,4.77155,6.80516,4.77155,8.33082,0,22.84081-8.48673,36.29521-21.12006.58682-.54738.54738.23478.3126.46929-7.46953,8.05713-23.34927,23.85775-32.69624,23.85775-5.28028,0-14.9012-3.05081-15.52719-10.79429-.46956-6.25778,4.22365-14.70586,11.1855-21.55019,7.97852-7.78344,19.1251-14.07987,27.22115-14.07987,7.31362,0,9.50418,4.4976,9.69979,6.41369.31286,2.816-5.045,8.68286-12.75007,11.81175C832.4828,716.609,831.9349,716.33535,832.67815,715.67045Z" transform="translate(-417.5082 -395.30029)"/>
      <path class="cls-1" d="M851.17936,716.57038a9.16272,9.16272,0,0,1,5.28028-2.3859,6.004,6.004,0,0,1,6.02326,5.20167,38.24644,38.24644,0,0,0,6.10082-.07835c.46982-.07834.97828.27369-.23425.66516a26.25907,26.25907,0,0,1-6.06218.74273c-.274,4.22417-9.30884,14.54942-16.07456,14.54942-3.91131,0-7.392-1.87744-7.392-5.20193C838.82076,725.33106,846.095,718.01718,851.17936,716.57038Zm-7.62649,16.93455c3.44175,0,11.77231-7.3528,14.62725-12.86707a12.97826,12.97826,0,0,1-4.41925-1.09554c-5.906,1.95578-11.1855,9.93431-11.1855,12.67225C842.57537,732.95755,842.61428,733.50493,843.55287,733.50493Zm13.88427-18.03009a2.599,2.599,0,0,0-2.15061,1.83827c-.15669.9775,1.32928,1.5254,3.59766,1.83826a4.26928,4.26928,0,0,0,.35178-1.75992C859.236,715.98331,858.68859,715.24033,857.43714,715.47484Z" transform="translate(-417.5082 -395.30029)"/>
      <path class="cls-1" d="M866.35529,718.6429c-.62572-.19534-1.09476-.5082-1.09476-.93884a6.98175,6.98175,0,0,1,1.9947-3.01111,17.91827,17.91827,0,0,0,2.5029,1.09476,128.62872,128.62872,0,0,0,7.62675-11.53754c.86024-1.60375,1.212-2.89411.50847-3.24641a2.41208,2.41208,0,0,1,1.83774.43013,5.06225,5.06225,0,0,1,2.50316,3.59818.55457.55457,0,0,1-.07782.235l-7.78318,11.2641a20.82451,20.82451,0,0,0,2.229.117,26.50881,26.50881,0,0,0,5.632-.54764c.23452-.07809.274.23478.07835.3523a25.79237,25.79237,0,0,1-9.58227,2.38564l-2.65908,3.67653a24.70621,24.70621,0,0,1,1.05585,6.84433c.15617,14.43216-9.50392,23.50571-12.555,23.50571-2.3859,0-5.78822-2.34673-5.82687-4.65429-.0397-4.3806,4.61459-13.1802,9.30806-21.12007,1.25145-2.11169,3.24614-5.1625,5.045-7.62649A3.79668,3.79668,0,0,0,866.35529,718.6429Zm3.05054,4.811c-6.41368,9.77761-13.25854,24.2876-13.25854,26.908,0,.54738.31287.50847.46982.50847,1.01615,0,4.92772-3.24615,8.09526-8.213C868.076,737.49432,870.61837,730.25878,869.40583,723.45389Z" transform="translate(-417.5082 -395.30029)"/>
      <path class="cls-1" d="M880.12308,718.6429c-.626-.19534-1.09554-.5082-1.09554-.93884a6.98614,6.98614,0,0,1,1.99522-3.01111,17.96182,17.96182,0,0,0,2.50316,1.09476,128.5581,128.5581,0,0,0,7.62649-11.53754c.8605-1.60375,1.21228-2.89411.50873-3.24641a2.41213,2.41213,0,0,1,1.83774.43013,5.06165,5.06165,0,0,1,2.5029,3.59818.54843.54843,0,0,1-.07835.235l-7.78265,11.2641a20.82581,20.82581,0,0,0,2.22921.117,26.50424,26.50424,0,0,0,5.63179-.54764c.2353-.07809.27421.23478.07835.3523a25.79357,25.79357,0,0,1-9.582,2.38564l-2.65934,3.67653a24.69654,24.69654,0,0,1,1.05585,6.84433c.15617,14.43216-9.50366,23.50571-12.555,23.50571-2.38512,0-5.788-2.34673-5.82739-4.65429-.03918-4.3806,4.61537-13.1802,9.30884-21.12007,1.25145-2.11169,3.24614-5.1625,5.045-7.62649A3.80335,3.80335,0,0,0,880.12308,718.6429Zm3.05028,4.811c-6.41368,9.77761-13.25854,24.2876-13.25854,26.908,0,.54738.31313.50847.46982.50847,1.01641,0,4.92772-3.24615,8.09578-8.213C881.84435,737.49432,884.38616,730.25878,883.17336,723.45389Z" transform="translate(-417.5082 -395.30029)"/>
      <path class="cls-1" d="M905.58484,714.2623c2.3859,0,5.24058,2.58151,5.24058,4.57621,0,1.95552-9.69953,8.4089-16.85646,8.44808a10.98955,10.98955,0,0,0-2.11248,4.73237c-.03865.58656.39147.82159,1.0172.82159a6.49307,6.49307,0,0,0,2.65985-.626,73.10467,73.10467,0,0,0,16.62195-10.208c.15669-.11726.70407.19561.54738.35178-5.35811,5.71039-15.21433,13.024-19.12511,13.024-1.87744,0-5.78823-3.1678-5.82766-5.08415a9.17828,9.17828,0,0,1,1.87744-4.88907,32.6542,32.6542,0,0,1,8.64368-8.213C901.00863,715.43593,903.59014,714.2623,905.58484,714.2623Zm-10.79429,12.00735c3.12889-.62572,6.80489-3.09,9.50392-5.08467,2.62016-1.95552,4.10613-4.4976,3.83218-4.6932C904.998,716.49178,898.74,721.69371,894.79055,726.26965Z" transform="translate(-417.5082 -395.30029)"/>
      <path class="cls-1" d="M925.10167,714.2623c2.38591,0,5.24059,2.58151,5.24059,4.57621,0,1.95552-9.69927,8.4089-16.8562,8.44808a10.98985,10.98985,0,0,0-2.112,4.73237c-.03943.58656.39069.82159,1.01641.82159a6.4909,6.4909,0,0,0,2.65986-.626,73.08211,73.08211,0,0,0,16.62195-10.208c.15669-.11726.70407.19561.54737.35178-5.3581,5.71039-15.21354,13.024-19.1251,13.024-1.87744,0-5.78849-3.1678-5.8274-5.08415a9.17766,9.17766,0,0,1,1.87718-4.88907,32.6542,32.6542,0,0,1,8.64368-8.213C920.52547,715.43593,923.10724,714.2623,925.10167,714.2623Zm-10.79428,12.00735c3.12889-.62572,6.80515-3.09,9.50392-5.08467,2.62016-1.95552,4.10639-4.4976,3.833-4.6932C924.51538,716.49178,918.25761,721.69371,914.30739,726.26965Z" transform="translate(-417.5082 -395.30029)"/>
    </g>
  </g>
  <text class="cls-2" transform="translate(120.9918 57.79932)">HUNGRYBUZZ</text>
</svg>
