<svg id="Layer_1" data-name="Layer 1" xmlns="http://www.w3.org/2000/svg" viewBox="0 0 41 32">
  <defs>
    <style>
      .cls-1 {
        fill: #60524d;
      }

      .cls-2, .cls-3, .cls-5, .cls-6 {
        fill: #171210;
      }

      .cls-3, .cls-4 {
        stroke: #60524d;
        stroke-miterlimit: 10;
      }

      .cls-4 {
        fill: none;
      }

      .cls-5 {
        fill-rule: evenodd;
      }

      .cls-6 {
        font-size: 14px;
        font-family: MyriadPro-Regular, Myriad Pro;
      }

      .cls-7 {
        letter-spacing: -0.02602em;
      }

      .cls-8 {
        letter-spacing: -0.00795em;
      }
    </style>
  </defs>
  <title>apple pay</title>
  <rect class="cls-1" width="41" height="32" rx="3.16842"/>
  <path class="cls-2" d="M10.12877,12.98023a2.4246,2.4246,0,0,0-1.68708-.46335l-2.31842.09086a.1423.1423,0,0,0-.13516.12115l-.98652,6.59835a.14231.14231,0,0,0,.14074.16334h.94684a.1423.1423,0,0,0,.14032-.11864L6.6236,17.0347a.14229.14229,0,0,1,.13475-.11853l1.278-.0501a3.05469,3.05469,0,0,0,2.05709-.74182,2.23909,2.23909,0,0,0,.68334-1.80062A1.74607,1.74607,0,0,0,10.12877,12.98023ZM9.06115,15.31072a1.63384,1.63384,0,0,1-1.0053.31023l-1.023.04009a.14231.14231,0,0,1-.14581-.16634l.26864-1.56053a.14232.14232,0,0,1,.13466-.11805L8.33,13.77538a1.20409,1.20409,0,0,1,.77053.17477.70569.70569,0,0,1,.27871.57465A.92062.92062,0,0,1,9.06115,15.31072Z" transform="translate(0 0)"/>
  <path class="cls-2" d="M14.71271,14.76228a.14207.14207,0,0,1-.23087.08638,1.782,1.782,0,0,0-1.26136-.35973,2.52111,2.52111,0,0,0-1.90153.97486,3.14174,3.14174,0,0,0-.47882.9191,2.85666,2.85666,0,0,0-.14581,1.011,2.21415,2.21415,0,0,0,.63069,1.52464,1.84592,1.84592,0,0,0,1.44727.57034,1.76052,1.76052,0,0,0,.98545-.32527.14215.14215,0,0,1,.22353.13377h0a.14231.14231,0,0,0,.14118.16013h.95547a.14231.14231,0,0,0,.1404-.11909l.77163-4.66664a.1423.1423,0,0,0-.14039-.16552h-.97363a.14231.14231,0,0,0-.14037.11892Zm-.31261,2.18378a1.50666,1.50666,0,0,1-.40486.93816,1.23278,1.23278,0,0,1-.87975.40048,1.02878,1.02878,0,0,1-.78178-.27437,1.11211,1.11211,0,0,1-.329-.7996,1.5244,1.5244,0,0,1,.34875-1.06283,1.23529,1.23529,0,0,1,.94266-.47614,1.00541,1.00541,0,0,1,.83532.33326A1.21593,1.21593,0,0,1,14.4001,16.94606Z" transform="translate(0 0)"/>
  <path class="cls-2" d="M21.04891,14.75434,19.62,16.89688a.14873.14873,0,0,1-.25354-.01867l-.93523-2.1052a.14294.14294,0,0,0-.13192-.081H17.24058a.13094.13094,0,0,0-.13.18239l1.54569,3.15434a.1195.1195,0,0,1-.00822.11991l-1.76425,2.65464A.12985.12985,0,0,0,17.00559,21h.97857a.146.146,0,0,0,.12064-.06087l4.15447-6.0488a.12973.12973,0,0,0-.12065-.1983h-.96808A.14576.14576,0,0,0,21.04891,14.75434Z" transform="translate(0 0)"/>
  <path class="cls-2" d="M27.65937,12.98023a2.4246,2.4246,0,0,0-1.68707-.46335l-2.3234.09106a.1423.1423,0,0,0-.13416.11524L22.24336,19.3144a.14231.14231,0,0,0,.1453.16915l1.10048-.04313A.14229.14229,0,0,0,23.6223,19.33l.52684-2.30309a.14228.14228,0,0,1,.13314-.11045l1.28465-.05036a3.05466,3.05466,0,0,0,2.05707-.74182,2.23917,2.23917,0,0,0,.68336-1.80062A1.74614,1.74614,0,0,0,27.65937,12.98023Zm-1.06763,2.3305a1.63383,1.63383,0,0,1-1.0053.31022l-1.023.04009a.14231.14231,0,0,1-.14582-.16634l.26863-1.56053a.14232.14232,0,0,1,.13467-.11805l1.03962-.04074a1.20413,1.20413,0,0,1,.77055.17477.70577.70577,0,0,1,.27871.57465A.92072.92072,0,0,1,26.59174,15.31073Z" transform="translate(0 0)"/>
  <path class="cls-2" d="M32.14384,14.73856a.14206.14206,0,0,1-.23087.08638,1.782,1.782,0,0,0-1.26136-.35971,2.5211,2.5211,0,0,0-1.90153.97485,3.14162,3.14162,0,0,0-.47882.9191,2.8569,2.8569,0,0,0-.14582,1.011,2.21416,2.21416,0,0,0,.6307,1.52464,1.84583,1.84583,0,0,0,1.44726.57033,1.75943,1.75943,0,0,0,.99037-.32883.14214.14214,0,0,1,.22375.13216l-.00726.06371a.14229.14229,0,0,0,.14138.15844h.95717a.14232.14232,0,0,0,.14045-.11935l.77216-4.72348a.1423.1423,0,0,0-.14043-.16526H32.307a.1423.1423,0,0,0-.14037.11892Zm-.31261,2.18378a1.50682,1.50682,0,0,1-.40486.93818,1.23279,1.23279,0,0,1-.87975.40047,1.02881,1.02881,0,0,1-.78179-.27437,1.11217,1.11217,0,0,1-.329-.79959,1.52439,1.52439,0,0,1,.34874-1.06284,1.23535,1.23535,0,0,1,.94266-.47614,1.00534,1.00534,0,0,1,.83532.33327A1.21593,1.21593,0,0,1,31.83123,16.92234Z" transform="translate(0 0)"/>
  <path class="cls-2" d="M34.9404,12.48407,33.773,19.32433a.14232.14232,0,0,0,.14028.16625H34.906a.14231.14231,0,0,0,.14028-.11837l1.1674-6.84026a.14229.14229,0,0,0-.14027-.16624h-.99271A.1423.1423,0,0,0,34.9404,12.48407Z" transform="translate(0 0)"/>
  <rect class="cls-1" width="41" height="32" rx="3.16842"/>
  <circle class="cls-3" cx="14.55797" cy="15.85714" r="9.14286"/>
  <circle class="cls-3" cx="26.96614" cy="15.85714" r="9.14286"/>
  <circle class="cls-4" cx="14.55797" cy="15.85714" r="9.14286"/>
  <rect class="cls-1" width="41" height="32" rx="3.16842"/>
  <path class="cls-2" d="M4,11.33921H9.33333s1.33334,5.66667,1.33334,6.33334L13,11.33921h3l-4,10H9s-1.33333-8-1.66667-8.33333A30.83375,30.83375,0,0,0,4,11.33921Z" transform="translate(0 0)"/>
  <polygon class="cls-2" points="16.667 11.339 19.333 11.339 17.333 21.339 14.667 21.339 16.667 11.339"/>
  <polygon class="cls-2" points="26 21.339 28.667 21.339 29.333 19.673 32.333 19.673 32.667 21.339 35 21.339 33 11.339 30 11.339 26 21.339"/>
  <path class="cls-2" d="M25.66667,13.67255s-1.66667-1-2.66667,0,2,2,2.66667,2.66666,1.66666,3.66667-2.33334,5A11.58081,11.58081,0,0,1,19,21.00588l.66667-2.33333c1.47009.76524,2.8091.91135,3.33333.33333a.98764.98764,0,0,0,.24892-.72809c-.08381-.61715-.84911-.853-1.58225-1.27191-2.33334-1.33333-2-3.66667-1-4.33333S22,11.33921,23.33333,11.33921h2.33334l.66666.33334v2Z" transform="translate(0 0)"/>
  <polygon class="cls-1" points="30.667 14.673 30 17.006 32 17.006 31 13.673 30.667 14.673"/>
  <rect class="cls-1" width="41" height="32" rx="3.16842"/>
  <g>
    <path class="cls-5" d="M7.28037,12.5725a2.86384,2.86384,0,0,1,1.05563.22236c.20838.05547.40746.13892.62044.20387a1.83219,1.83219,0,0,0,1.11124-.09293,5.8468,5.8468,0,0,1,.78709-.26835,2.52174,2.52174,0,0,1,2.20395.50921,2.269,2.269,0,0,1,.49076.47222c.05557.06495.05557.074-.01849.12043a2.27479,2.27479,0,0,0-1.14827,1.81493,2.36746,2.36746,0,0,0,.676,1.93536,2.40394,2.40394,0,0,0,.78709.54666c.08335.0275.088.046.05092.12A7.98178,7.98178,0,0,1,12.56791,20.277a2.58867,2.58867,0,0,1-.65747.54618,1.30826,1.30826,0,0,1-1.227.04647c-.1713-.065-.33336-.15741-.5093-.21288a2.34267,2.34267,0,0,0-1.69925.074,4.25171,4.25171,0,0,1-.43984.1759,1.44708,1.44708,0,0,1-1.45849-.26835,3.329,3.329,0,0,1-.6899-.75006,7.28522,7.28522,0,0,1-1.08341-2.05579,6.31722,6.31722,0,0,1-.31951-1.63,3.85694,3.85694,0,0,1,.2593-1.77795,3.00111,3.00111,0,0,1,1.98633-1.787A1.89057,1.89057,0,0,1,7.28037,12.5725Z" transform="translate(0 0)"/>
    <path class="cls-5" d="M11.3039,10.24836a2.42622,2.42622,0,0,1-.43059,1.3612,2.32805,2.32805,0,0,1-1.25012.95393,1.471,1.471,0,0,1-.49081.074c-.06946,0-.09259-.01849-.09724-.09245a1.93327,1.93327,0,0,1,.20373-1.06535A2.58875,2.58875,0,0,1,10.78531,10.1a1.38746,1.38746,0,0,1,.43524-.09246c.06021-.028.07411.028.07411.074A.77.77,0,0,1,11.3039,10.24836Z" transform="translate(0 0)"/>
  </g>
  <text class="cls-6" transform="translate(16.14209 20.82422)"><tspan class="cls-7">P</tspan><tspan class="cls-8" x="7.0835" y="0">a</tspan><tspan x="13.72021" y="0">y</tspan></text>
</svg>
