<svg id="Layer_1" data-name="Layer 1" xmlns="http://www.w3.org/2000/svg" viewBox="0 0 41 32">
  <defs>
    <style>
      .cls-1 {
        fill: #60524d;
      }

      .cls-2, .cls-3 {
        fill: #171210;
      }

      .cls-3, .cls-4 {
        stroke: #60524d;
        stroke-miterlimit: 10;
      }

      .cls-4 {
        fill: none;
      }
    </style>
  </defs>
  <title>visa</title>
  <rect class="cls-1" width="41" height="32" rx="3.16842"/>
  <path class="cls-2" d="M10.12877,12.98023a2.42461,2.42461,0,0,0-1.68708-.46335l-2.31842.09086a.14231.14231,0,0,0-.13516.12115l-.98652,6.59835a.14232.14232,0,0,0,.11972.16178l.021.00156h.94684a.1423.1423,0,0,0,.14032-.11864L6.6236,17.0347a.1423.1423,0,0,1,.13475-.11853l1.278-.0501a3.05468,3.05468,0,0,0,2.05709-.74182,2.2391,2.2391,0,0,0,.68334-1.80062A1.74607,1.74607,0,0,0,10.12877,12.98023ZM9.06115,15.31072a1.63386,1.63386,0,0,1-1.0053.31023l-1.023.04009A.14232.14232,0,0,1,6.887,15.4947l.26864-1.56053a.14232.14232,0,0,1,.13466-.11805L8.33,13.77538a1.2041,1.2041,0,0,1,.77053.17477.70567.70567,0,0,1,.27871.57465A.92063.92063,0,0,1,9.06115,15.31072Z"/>
  <path class="cls-2" d="M14.71271,14.76228a.14206.14206,0,0,1-.23087.08638,1.782,1.782,0,0,0-1.26136-.35973,2.5211,2.5211,0,0,0-1.90153.97486,3.1419,3.1419,0,0,0-.47882.9191,2.85667,2.85667,0,0,0-.14581,1.011,2.21412,2.21412,0,0,0,.63069,1.52464,1.84591,1.84591,0,0,0,1.44727.57034,1.76055,1.76055,0,0,0,.98545-.32527.14215.14215,0,0,1,.22353.13377h0a.14231.14231,0,0,0,.12337.159l.01781.00112h.95547a.14231.14231,0,0,0,.1404-.11909l.77163-4.66664a.1423.1423,0,0,0-.11717-.16361l-.02322-.00191h-.97363a.1423.1423,0,0,0-.14037.11892Zm-.31261,2.18378a1.50671,1.50671,0,0,1-.40486.93816,1.23274,1.23274,0,0,1-.87975.40048,1.02876,1.02876,0,0,1-.78178-.27437,1.11214,1.11214,0,0,1-.329-.7996,1.52437,1.52437,0,0,1,.34875-1.06283,1.23532,1.23532,0,0,1,.94266-.47614,1.0054,1.0054,0,0,1,.83532.33326A1.21593,1.21593,0,0,1,14.4001,16.94606Z"/>
  <path class="cls-2" d="M21.04891,14.75434,19.62,16.89688a.14874.14874,0,0,1-.25354-.01867l-.93523-2.1052a.143.143,0,0,0-.13192-.081H17.24058a.13095.13095,0,0,0-.13.18239l1.54569,3.15434a.11951.11951,0,0,1-.00822.11991L16.8838,20.80329A.12985.12985,0,0,0,17.00559,21h.97857a.146.146,0,0,0,.12064-.06087l4.15447-6.0488a.12972.12972,0,0,0-.12065-.1983h-.96808A.14575.14575,0,0,0,21.04891,14.75434Z"/>
  <path class="cls-2" d="M27.65937,12.98023a2.42457,2.42457,0,0,0-1.68707-.46335l-2.3234.09106a.14231.14231,0,0,0-.13416.11524L22.24336,19.3144a.14233.14233,0,0,0,.1453.16915l1.10048-.04313A.14229.14229,0,0,0,23.6223,19.33l.52684-2.30309a.14227.14227,0,0,1,.13314-.11045l1.28465-.05036a3.05468,3.05468,0,0,0,2.05707-.74182,2.23915,2.23915,0,0,0,.68336-1.80062A1.74615,1.74615,0,0,0,27.65937,12.98023Zm-1.06763,2.3305a1.63385,1.63385,0,0,1-1.0053.31022l-1.023.04009a.14228.14228,0,0,1-.14582-.16634l.26863-1.56053a.14232.14232,0,0,1,.13467-.11805l1.03962-.04074a1.20411,1.20411,0,0,1,.77055.17477.70581.70581,0,0,1,.27871.57465A.92073.92073,0,0,1,26.59174,15.31073Z"/>
  <path class="cls-2" d="M32.14384,14.73856a.14206.14206,0,0,1-.23087.08638,1.782,1.782,0,0,0-1.26136-.35971,2.52112,2.52112,0,0,0-1.90153.97485,3.1419,3.1419,0,0,0-.47882.9191,2.8569,2.8569,0,0,0-.14582,1.011,2.21417,2.21417,0,0,0,.6307,1.52464,1.84585,1.84585,0,0,0,1.44726.57033,1.75945,1.75945,0,0,0,.99037-.32883.14214.14214,0,0,1,.22375.13216l-.00726.06371a.14229.14229,0,0,0,.12522.15752l.01616.00092h.95717a.14232.14232,0,0,0,.14045-.11935l.77216-4.72348a.14231.14231,0,0,0-.11748-.1634l-.02295-.00186h-.974a.14229.14229,0,0,0-.14037.11892Zm-.31261,2.18378a1.50676,1.50676,0,0,1-.40486.93818,1.23275,1.23275,0,0,1-.87975.40047,1.0288,1.0288,0,0,1-.78179-.27437,1.11214,1.11214,0,0,1-.329-.79959,1.5244,1.5244,0,0,1,.34874-1.06284,1.23538,1.23538,0,0,1,.94266-.47614,1.00534,1.00534,0,0,1,.83532.33327A1.216,1.216,0,0,1,31.83123,16.92234Z"/>
  <path class="cls-2" d="M34.9404,12.48407,33.773,19.32433a.14231.14231,0,0,0,.11636.16422l.02392.002H34.906a.14231.14231,0,0,0,.14028-.11837l1.1674-6.84026a.14229.14229,0,0,0-.14027-.16624H35.0807A.14231.14231,0,0,0,34.9404,12.48407Z"/>
  <rect class="cls-1" width="41" height="32" rx="3.16842"/>
  <circle class="cls-3" cx="14.55797" cy="15.85714" r="9.14286"/>
  <circle class="cls-3" cx="26.96614" cy="15.85714" r="9.14286"/>
  <circle class="cls-4" cx="14.55797" cy="15.85714" r="9.14286"/>
  <rect class="cls-1" width="41" height="32" rx="3.16842"/>
  <path class="cls-2" d="M4,11.33921H9.33333s1.33334,5.66667,1.33334,6.33334L13,11.33921h3l-4,10H9s-1.33333-8-1.66667-8.33333A30.83359,30.83359,0,0,0,4,11.33921Z"/>
  <polygon class="cls-2" points="16.667 11.339 19.333 11.339 17.333 21.339 14.667 21.339 16.667 11.339"/>
  <polygon class="cls-2" points="26 21.339 28.667 21.339 29.333 19.673 32.333 19.673 32.667 21.339 35 21.339 33 11.339 30 11.339 26 21.339"/>
  <path class="cls-2" d="M25.66667,13.67255s-1.66667-1-2.66667,0,2,2,2.66667,2.66666,1.66666,3.66667-2.33334,5A11.58077,11.58077,0,0,1,19,21.00588l.66667-2.33333c1.47009.76524,2.8091.91135,3.33333.33333a.98764.98764,0,0,0,.24892-.72809c-.08381-.61715-.84911-.853-1.58225-1.27191-2.33334-1.33333-2-3.66667-1-4.33333S22,11.33921,23.33333,11.33921h2.33334l.66666.33334v2Z"/>
  <polygon class="cls-1" points="30.667 14.673 30 17.006 32 17.006 31 13.673 30.667 14.673"/>
</svg>
