<svg id="Layer_1" data-name="Layer 1" xmlns="http://www.w3.org/2000/svg" viewBox="0 0 41 32">
  <defs>
    <style>
      .cls-1 {
        fill: #60524d;
      }

      .cls-2 {
        fill: #171210;
      }
    </style>
  </defs>
  <title>paypal</title>
  <rect class="cls-1" width="41" height="32" rx="3.16842"/>
  <path class="cls-2" d="M10.12877,12.98023a2.4246,2.4246,0,0,0-1.68708-.46335l-2.31842.09086a.1423.1423,0,0,0-.13516.12115l-.98652,6.59835a.14231.14231,0,0,0,.14074.16334h.94684a.1423.1423,0,0,0,.14032-.11864L6.6236,17.0347a.14229.14229,0,0,1,.13475-.11853l1.278-.0501a3.05469,3.05469,0,0,0,2.05709-.74182,2.23909,2.23909,0,0,0,.68334-1.80062A1.74607,1.74607,0,0,0,10.12877,12.98023ZM9.06115,15.31072a1.63384,1.63384,0,0,1-1.0053.31023l-1.023.04009a.14231.14231,0,0,1-.14581-.16634l.26864-1.56053a.14232.14232,0,0,1,.13466-.11805L8.33,13.77538a1.20409,1.20409,0,0,1,.77053.17477.70569.70569,0,0,1,.27871.57465A.92062.92062,0,0,1,9.06115,15.31072Z" transform="translate(0 0)"/>
  <path class="cls-2" d="M14.71271,14.76228a.14207.14207,0,0,1-.23087.08638,1.782,1.782,0,0,0-1.26136-.35973,2.52111,2.52111,0,0,0-1.90153.97486,3.14174,3.14174,0,0,0-.47882.9191,2.85666,2.85666,0,0,0-.14581,1.011,2.21415,2.21415,0,0,0,.63069,1.52464,1.84592,1.84592,0,0,0,1.44727.57034,1.76052,1.76052,0,0,0,.98545-.32527.14215.14215,0,0,1,.22353.13377h0a.14231.14231,0,0,0,.14118.16013h.95547a.14231.14231,0,0,0,.1404-.11909l.77163-4.66664a.1423.1423,0,0,0-.14039-.16552h-.97363a.14231.14231,0,0,0-.14037.11892Zm-.31261,2.18378a1.50666,1.50666,0,0,1-.40486.93816,1.23278,1.23278,0,0,1-.87975.40048,1.02878,1.02878,0,0,1-.78178-.27437,1.11211,1.11211,0,0,1-.329-.7996,1.5244,1.5244,0,0,1,.34875-1.06283,1.23529,1.23529,0,0,1,.94266-.47614,1.00541,1.00541,0,0,1,.83532.33326A1.21593,1.21593,0,0,1,14.4001,16.94606Z" transform="translate(0 0)"/>
  <path class="cls-2" d="M21.04891,14.75434,19.62,16.89688a.14873.14873,0,0,1-.25354-.01867l-.93523-2.1052a.14294.14294,0,0,0-.13192-.081H17.24058a.13094.13094,0,0,0-.13.18239l1.54569,3.15434a.1195.1195,0,0,1-.00822.11991l-1.76425,2.65464A.12985.12985,0,0,0,17.00559,21h.97857a.146.146,0,0,0,.12064-.06087l4.15447-6.0488a.12973.12973,0,0,0-.12065-.1983h-.96808A.14576.14576,0,0,0,21.04891,14.75434Z" transform="translate(0 0)"/>
  <path class="cls-2" d="M27.65937,12.98023a2.4246,2.4246,0,0,0-1.68707-.46335l-2.3234.09106a.1423.1423,0,0,0-.13416.11524L22.24336,19.3144a.14231.14231,0,0,0,.1453.16915l1.10048-.04313A.14229.14229,0,0,0,23.6223,19.33l.52684-2.30309a.14228.14228,0,0,1,.13314-.11045l1.28465-.05036a3.05466,3.05466,0,0,0,2.05707-.74182,2.23917,2.23917,0,0,0,.68336-1.80062A1.74614,1.74614,0,0,0,27.65937,12.98023Zm-1.06763,2.3305a1.63383,1.63383,0,0,1-1.0053.31022l-1.023.04009a.14231.14231,0,0,1-.14582-.16634l.26863-1.56053a.14232.14232,0,0,1,.13467-.11805l1.03962-.04074a1.20413,1.20413,0,0,1,.77055.17477.70577.70577,0,0,1,.27871.57465A.92072.92072,0,0,1,26.59174,15.31073Z" transform="translate(0 0)"/>
  <path class="cls-2" d="M32.14384,14.73856a.14206.14206,0,0,1-.23087.08638,1.782,1.782,0,0,0-1.26136-.35971,2.5211,2.5211,0,0,0-1.90153.97485,3.14162,3.14162,0,0,0-.47882.9191,2.8569,2.8569,0,0,0-.14582,1.011,2.21416,2.21416,0,0,0,.6307,1.52464,1.84583,1.84583,0,0,0,1.44726.57033,1.75943,1.75943,0,0,0,.99037-.32883.14214.14214,0,0,1,.22375.13216l-.00726.06371a.14229.14229,0,0,0,.14138.15844h.95717a.14232.14232,0,0,0,.14045-.11935l.77216-4.72348a.1423.1423,0,0,0-.14043-.16526H32.307a.1423.1423,0,0,0-.14037.11892Zm-.31261,2.18378a1.50682,1.50682,0,0,1-.40486.93818,1.23279,1.23279,0,0,1-.87975.40047,1.02881,1.02881,0,0,1-.78179-.27437,1.11217,1.11217,0,0,1-.329-.79959,1.52439,1.52439,0,0,1,.34874-1.06284,1.23535,1.23535,0,0,1,.94266-.47614,1.00534,1.00534,0,0,1,.83532.33327A1.21593,1.21593,0,0,1,31.83123,16.92234Z" transform="translate(0 0)"/>
  <path class="cls-2" d="M34.9404,12.48407,33.773,19.32433a.14232.14232,0,0,0,.14028.16625H34.906a.14231.14231,0,0,0,.14028-.11837l1.1674-6.84026a.14229.14229,0,0,0-.14027-.16624h-.99271A.1423.1423,0,0,0,34.9404,12.48407Z" transform="translate(0 0)"/>
</svg>
